<svg width="205" height="46" viewBox="0 0 205 46" fill="none" xmlns="http://www.w3.org/2000/svg">
<path fill-rule="evenodd" clip-rule="evenodd" d="M85.634 16.4701C83.928 16.4701 81.1054 17.0511 81.1054 19.019V23.3564C81.1056 25.2948 83.4482 25.9202 85.5339 25.9202C85.7287 25.9202 85.93 25.9153 86.1406 25.9061C87.5063 25.8545 88.84 25.4779 90.0311 24.8077V18.9789C90.0311 17.1237 87.3148 16.4703 85.634 16.4701ZM85.2153 33.4396C83.2713 33.4549 81.359 32.9461 79.6796 31.9667L79.6799 29.3437C80.2832 29.817 80.954 30.1972 81.6699 30.4716C84.3683 31.461 86.8794 31.2675 87.9184 30.8688C89.275 30.3517 90.0311 29.5575 90.0311 28.8389V27.0521C84.3273 29.6661 80.0835 26.9661 79.2108 26.1406C78.5284 25.5305 78.1061 24.6818 78.0311 23.7695C78.0292 23.7479 78.0311 19.019 78.0311 19.019C78.0311 17.4207 78.9553 16.1065 80.8851 15.1146C82.3578 14.3715 83.9841 13.9838 85.6337 13.9828C87.2171 13.9696 88.7794 14.3461 90.1831 15.0789C92.2445 16.3041 93.1636 17.4811 93.1636 18.8968V28.5644C93.1636 30.1087 91.5377 33.4396 85.2153 33.4396Z" fill="#ED1C24"/>
<path fill-rule="evenodd" clip-rule="evenodd" d="M52.0655 28.1808C49.2424 28.2289 46.4841 27.3327 44.2284 25.6344L44 25.4473L46.1785 23.5076L46.3446 23.4232C48.0083 24.6982 50.037 25.406 52.1327 25.4428C54.4774 25.4427 56.3144 24.5699 56.3144 23.1777C56.3144 21.6865 53.9205 20.872 51.6058 20.0848L51.2732 19.9718C48.1496 18.9041 44.6096 17.6942 44.6096 14.5979C44.6098 11.8444 47.9295 9.76855 52.3341 9.76855C54.9954 9.7684 59.2181 10.681 59.2181 13.1303V14.7009H55.8691V13.7516C55.8691 12.9719 54.2168 12.2882 52.3341 12.2882C49.8923 12.2882 48.0518 13.2487 48.0518 14.5228C48.0518 15.921 50.2397 16.6333 52.5572 17.387L52.8925 17.4966C56.0949 18.5425 59.7232 19.7283 59.7232 23.0536C59.7232 25.6011 57.0927 28.1808 52.0655 28.1808Z" fill="#ED1C24"/>
<path fill-rule="evenodd" clip-rule="evenodd" d="M116.197 27.8104H112.99V17.7598C112.99 17.2829 112.697 17.0411 112.12 17.0411C111.718 17.0788 111.32 17.1528 110.931 17.2623V14.6155L111.101 14.5571C111.633 14.3797 112.191 14.2891 112.752 14.2889C114.128 14.2889 115.136 14.843 115.517 15.7868C115.827 15.4418 116.178 15.1356 116.562 14.8749C117.433 14.2835 118.465 13.9732 119.518 13.9857C120.791 14.0117 122.037 14.3624 123.138 15.0044L123.332 15.113L122.082 17.448C121.296 17.0689 120.439 16.8587 119.566 16.8309C119.023 16.8188 118.485 16.9479 118.006 17.2054C117.426 17.5157 116.948 17.9858 116.627 18.5599C116.306 19.1341 116.156 19.7883 116.196 20.4449L116.197 27.8104Z" fill="#ED1C24"/>
<path fill-rule="evenodd" clip-rule="evenodd" d="M101.79 21.3354C101.532 21.3354 101.269 21.3411 101.007 21.3524C98.3487 21.4672 97.9821 22.7092 97.9821 23.6707C97.9823 25.0385 98.7033 25.7747 100.948 25.7747C102.266 25.7747 104.718 25.2779 106.131 23.9122C106.129 23.454 106.13 22.3679 106.131 21.9455C104.722 21.5279 103.259 21.3223 101.79 21.3354ZM100.778 28.0926C98.4629 28.1916 94.6943 27.5295 94.6943 23.76C94.6943 20.6786 96.9367 19.1162 101.359 19.1162C102.978 19.1417 104.59 19.3382 106.168 19.7023V18.9165C106.168 18.1393 105.497 17.4223 104.326 16.9498C103.534 16.6281 102.688 16.4626 101.834 16.4623C100.285 16.4328 98.7562 16.8094 97.3986 17.5548L97.1835 17.6708L95.9304 15.5309L96.1454 15.4023C96.3413 15.2846 96.5247 15.1833 96.7059 15.0922C98.3374 14.3578 100.107 13.9798 101.896 13.9834C103.493 13.9614 105.073 14.3206 106.503 15.0311C108.342 15.9772 109.313 17.3646 109.313 19.044C109.313 19.0939 109.304 24.6586 109.313 25.1379C109.319 25.4215 109.391 25.5169 109.413 25.5393C109.594 25.6851 109.824 25.7542 110.055 25.7317C110.371 25.7231 110.686 25.6717 110.989 25.5787L111.312 25.4848V27.8071L111.141 27.8661C110.681 28.0255 110.199 28.1079 109.712 28.11C108.917 28.1185 108.139 27.877 107.489 27.4196C107.056 27.0763 106.711 26.6345 106.482 26.1311C105.13 27.2943 102.174 28.0926 100.778 28.0926Z" fill="#ED1C24"/>
<path fill-rule="evenodd" clip-rule="evenodd" d="M68.0655 21.3354C67.8077 21.3354 67.5439 21.3411 67.2824 21.3524C64.6241 21.4672 64.258 22.7092 64.258 23.6707C64.258 25.0385 64.9787 25.7747 67.2227 25.7747C68.5411 25.7747 70.9937 25.2779 72.4058 23.9122C72.4041 23.454 72.4049 22.3679 72.4058 21.9455C70.9973 21.5279 69.5345 21.3223 68.0655 21.3354ZM67.0537 28.0926C64.738 28.1915 60.9697 27.5295 60.9697 23.76C60.9697 20.6786 63.2124 19.1162 67.6347 19.1162C69.2538 19.1418 70.8656 19.3382 72.4434 19.7022V18.9165C72.4434 18.1393 71.7726 17.4223 70.602 16.9498C69.8104 16.6281 68.964 16.4626 68.1095 16.4623C66.561 16.4328 65.0317 16.8094 63.674 17.5548L63.4595 17.6708L62.206 15.5309L62.4207 15.4023C62.6168 15.2846 62.8005 15.1833 62.981 15.0922C64.6125 14.3578 66.3818 13.9798 68.1709 13.9834C69.7685 13.9614 71.3483 14.3206 72.7794 15.0311C74.6173 15.9772 75.5887 17.3646 75.5887 19.044C75.5889 19.0939 75.5795 24.6586 75.5887 25.1379C75.5946 25.4215 75.666 25.5169 75.6891 25.5393C75.8692 25.6854 76.0997 25.7545 76.3304 25.7317C76.6473 25.7231 76.9615 25.6716 77.2646 25.5787L77.5873 25.4848V27.8071L77.4161 27.8661C76.9567 28.0255 76.4741 28.1079 75.9878 28.11C75.1926 28.1183 74.4148 27.8768 73.7641 27.4196C73.331 27.0762 72.986 26.6344 72.7576 26.1311C71.4057 27.2943 68.4506 28.0926 67.0537 28.0926Z" fill="#ED1C24"/>
<path fill-rule="evenodd" clip-rule="evenodd" d="M153.935 21.3354C153.677 21.3354 153.413 21.3411 153.152 21.3524C150.493 21.4672 150.127 22.7092 150.127 23.6707C150.127 25.0385 150.848 25.7747 153.092 25.7747C154.411 25.7747 156.863 25.2779 158.275 23.9122C158.273 23.454 158.274 22.3679 158.275 21.9455C156.867 21.528 155.404 21.3224 153.935 21.3354ZM152.923 28.0926C150.608 28.1915 146.839 27.5295 146.839 23.76C146.839 20.6786 149.082 19.1162 153.503 19.1162C155.123 19.1417 156.734 19.3381 158.312 19.7022V18.9165C158.312 18.1393 157.642 17.4223 156.471 16.9498C155.679 16.6281 154.833 16.4626 153.979 16.4623C152.43 16.4328 150.901 16.8095 149.543 17.5548L149.329 17.6708L148.075 15.5309L148.29 15.4023C148.486 15.2846 148.67 15.1833 148.85 15.0922C150.482 14.3577 152.252 13.9797 154.041 13.9834C155.638 13.9615 157.218 14.3206 158.649 15.0311C160.487 15.9771 161.458 17.3646 161.458 19.044C161.458 19.0939 161.449 24.6586 161.458 25.1379C161.464 25.4215 161.536 25.5169 161.558 25.5393C161.739 25.6851 161.969 25.7542 162.2 25.7317C162.516 25.7231 162.831 25.6716 163.134 25.5787L163.457 25.4848V27.8071L163.286 27.8661C162.826 28.0254 162.343 28.1079 161.857 28.11C161.062 28.1185 160.284 27.877 159.634 27.4196C159.2 27.0763 158.855 26.6346 158.627 26.1311C157.275 27.2943 154.32 28.0926 152.923 28.0926Z" fill="#ED1C24"/>
<path fill-rule="evenodd" clip-rule="evenodd" d="M186.333 30.3399C185.538 30.3483 184.76 30.1065 184.11 29.6485C183.696 29.3381 183.36 28.9344 183.131 28.4702C182.902 28.0061 182.785 27.4945 182.79 26.9767C182.773 26.1484 182.777 19.8954 182.79 19.0442C182.807 17.804 182.118 17.0415 180.947 16.5694C180.405 16.3556 179.826 16.2486 179.243 16.2544C177.94 16.3262 176.665 16.657 175.491 17.2273C175.41 17.2616 175.339 17.2918 175.276 17.3187V27.8111H172.128V15.7864L172.252 15.713C172.367 15.6494 172.486 15.593 172.608 15.5443C172.707 15.5016 172.78 15.4703 172.842 15.4391C174.867 14.4373 177.083 13.8811 179.34 13.8079C180.651 13.7847 181.948 14.0736 183.125 14.6509C184.963 15.5973 185.935 16.9848 185.935 18.6632C185.935 18.7424 185.926 26.7456 185.935 27.2208C185.939 27.5039 186.012 27.5995 186.035 27.6225C186.215 27.7681 186.445 27.8371 186.676 27.8145C186.992 27.8057 187.306 27.7542 187.609 27.6615L187.933 27.5669V30.0362L187.762 30.095C187.302 30.2546 186.82 30.3374 186.333 30.3399Z" fill="#ED1C24"/>
<path fill-rule="evenodd" clip-rule="evenodd" d="M133.181 18.3116H138.337C140.201 18.3116 141.313 17.2333 141.313 15.4272C141.313 13.6672 140.221 12.6165 138.39 12.6165L133.181 12.6164V18.3116ZM145.928 27.811H144.367C142.824 27.811 142.197 27.6036 141.531 26.3796L138.97 21.7247C138.538 20.9985 138.272 20.9241 137.323 20.9241H133.181V27.811H130.007V10.0039H138.684C142.257 10.0039 144.567 12.0946 144.567 15.3292C144.602 16.338 144.322 17.3327 143.765 18.1745C143.208 19.0163 142.402 19.663 141.46 20.0244C141.654 20.1948 141.818 20.3962 141.946 20.6203L144.175 24.6863C144.397 25.1109 144.606 25.1982 145.145 25.1982H145.928V27.811Z" fill="#ED1C24"/>
<path fill-rule="evenodd" clip-rule="evenodd" d="M194.861 21.3354C194.603 21.3354 194.339 21.3411 194.078 21.3524C191.42 21.4672 191.053 22.7092 191.053 23.6707C191.053 25.0385 191.774 25.7747 194.018 25.7747C195.337 25.7747 197.789 25.2779 199.202 23.9122C199.2 23.454 199.2 22.3679 199.202 21.9455C197.793 21.5279 196.33 21.3223 194.861 21.3354ZM193.85 28.0926C191.533 28.1916 187.765 27.5295 187.765 23.76C187.765 20.6786 190.008 19.1162 194.43 19.1162C196.049 19.1418 197.661 19.3382 199.239 19.7023V18.9165C199.239 18.1393 198.568 17.4223 197.397 16.9498C196.606 16.6281 195.76 16.4626 194.905 16.4623C193.357 16.4328 191.827 16.8095 190.469 17.5548L190.255 17.6708L189.002 15.5309L189.216 15.4023C189.413 15.2846 189.596 15.1833 189.777 15.0922C191.408 14.3578 193.178 13.9797 194.967 13.9834C196.564 13.9614 198.144 14.3206 199.575 15.0311C201.413 15.9772 202.384 17.3646 202.384 19.044C202.384 19.0939 202.375 24.6586 202.384 25.1379C202.39 25.4215 202.462 25.5169 202.485 25.5393C202.665 25.6852 202.895 25.7543 203.126 25.7317C203.443 25.7231 203.757 25.6716 204.06 25.5787L204.383 25.4848V27.8071L204.212 27.8661C203.753 28.0255 203.27 28.1079 202.783 28.11C201.988 28.1184 201.21 27.8769 200.56 27.4196C200.126 27.0765 199.781 26.6347 199.553 26.1311C198.201 27.2943 195.246 28.0926 193.85 28.0926Z" fill="#ED1C24"/>
<path fill-rule="evenodd" clip-rule="evenodd" d="M168.487 25.7043C167.816 25.7043 167.609 25.5464 167.566 25.4972C167.489 25.4094 167.457 25.2564 167.457 24.9014C167.457 24.6333 167.452 19.7382 167.453 16.5562H170.012L170.387 13.9908H167.454C167.454 12.1502 167.456 10.5674 167.456 10.5674L164.311 11.3291C164.311 11.3291 164.297 24.0462 164.311 24.7841C164.306 25.3018 164.423 25.8135 164.653 26.2776C164.882 26.7417 165.218 27.1453 165.632 27.4556C166.383 27.9656 167.278 28.22 168.185 28.1809C168.879 28.1744 169.569 28.082 170.239 27.9056C170.442 27.8472 171.05 27.6727 171.05 27.6727L171.05 25.1076C170.235 25.4505 169.369 25.6522 168.487 25.7043Z" fill="#ED1C24"/>
<path d="M54.8952 38.1273C54.8698 37.9128 54.7668 37.7463 54.5862 37.6278C54.4056 37.5093 54.1841 37.45 53.9217 37.45C53.7298 37.45 53.5619 37.4811 53.418 37.5432C53.2755 37.6052 53.164 37.6906 53.0836 37.7992C53.0046 37.9079 52.9651 38.0313 52.9651 38.1696C52.9651 38.2853 52.9926 38.3848 53.0476 38.468C53.1041 38.5499 53.176 38.6183 53.2635 38.6733C53.351 38.7269 53.4427 38.7714 53.5386 38.8066C53.6346 38.8405 53.7227 38.868 53.8032 38.8892L54.2434 39.0077C54.3563 39.0373 54.4818 39.0783 54.6201 39.1305C54.7598 39.1827 54.8931 39.2539 55.0201 39.3442C55.1485 39.4331 55.2543 39.5474 55.3376 39.6871C55.4208 39.8267 55.4624 39.9982 55.4624 40.2013C55.4624 40.4356 55.401 40.6472 55.2783 40.8363C55.157 41.0253 54.9792 41.1756 54.745 41.2871C54.5122 41.3985 54.2293 41.4543 53.8963 41.4543C53.5859 41.4543 53.3171 41.4042 53.0899 41.304C52.8642 41.2038 52.6864 41.0641 52.5566 40.8849C52.4282 40.7058 52.3556 40.4976 52.3386 40.2606H52.8804C52.8945 40.4243 52.9496 40.5597 53.0455 40.667C53.1429 40.7728 53.2656 40.8518 53.4138 40.904C53.5633 40.9548 53.7242 40.9802 53.8963 40.9802C54.0966 40.9802 54.2765 40.9477 54.436 40.8828C54.5954 40.8165 54.7217 40.7248 54.8148 40.6077C54.9079 40.4892 54.9545 40.3509 54.9545 40.1929C54.9545 40.049 54.9143 39.9319 54.8338 39.8416C54.7534 39.7513 54.6476 39.6779 54.5164 39.6215C54.3852 39.565 54.2434 39.5156 54.091 39.4733L53.5577 39.3209C53.219 39.2236 52.951 39.0846 52.7534 38.904C52.5559 38.7234 52.4571 38.4871 52.4571 38.195C52.4571 37.9523 52.5227 37.7407 52.654 37.5601C52.7866 37.3781 52.9644 37.237 53.1873 37.1368C53.4116 37.0352 53.6621 36.9844 53.9386 36.9844C54.218 36.9844 54.4663 37.0345 54.6836 37.1347C54.9009 37.2335 55.073 37.3689 55.2 37.541C55.3284 37.7132 55.3961 37.9086 55.4032 38.1273H54.8952ZM57.5783 41.4458C57.2848 41.4458 57.0273 41.3759 56.8058 41.2363C56.5857 41.0966 56.4136 40.9012 56.2894 40.65C56.1666 40.3989 56.1053 40.1054 56.1053 39.7696C56.1053 39.431 56.1666 39.1354 56.2894 38.8828C56.4136 38.6303 56.5857 38.4342 56.8058 38.2945C57.0273 38.1548 57.2848 38.085 57.5783 38.085C57.8718 38.085 58.1285 38.1548 58.3486 38.2945C58.5702 38.4342 58.7423 38.6303 58.865 38.8828C58.9892 39.1354 59.0513 39.431 59.0513 39.7696C59.0513 40.1054 58.9892 40.3989 58.865 40.65C58.7423 40.9012 58.5702 41.0966 58.3486 41.2363C58.1285 41.3759 57.8718 41.4458 57.5783 41.4458ZM57.5783 40.9971C57.8012 40.9971 57.9846 40.94 58.1285 40.8257C58.2725 40.7114 58.379 40.5611 58.4481 40.3749C58.5173 40.1887 58.5518 39.9869 58.5518 39.7696C58.5518 39.5523 58.5173 39.3499 58.4481 39.1622C58.379 38.9745 58.2725 38.8229 58.1285 38.7072C57.9846 38.5915 57.8012 38.5336 57.5783 38.5336C57.3554 38.5336 57.1719 38.5915 57.028 38.7072C56.8841 38.8229 56.7776 38.9745 56.7084 39.1622C56.6393 39.3499 56.6047 39.5523 56.6047 39.7696C56.6047 39.9869 56.6393 40.1887 56.7084 40.3749C56.7776 40.5611 56.8841 40.7114 57.028 40.8257C57.1719 40.94 57.3554 40.9971 57.5783 40.9971ZM61.8624 40.049V38.1273H62.3619V41.3781H61.8624V40.8278H61.8285C61.7523 40.9929 61.6338 41.1333 61.473 41.249C61.3121 41.3632 61.109 41.4204 60.8635 41.4204C60.6603 41.4204 60.4797 41.3759 60.3217 41.2871C60.1636 41.1968 60.0395 41.0613 59.9492 40.8807C59.8589 40.6987 59.8137 40.4694 59.8137 40.1929V38.1273H60.3132V40.159C60.3132 40.3961 60.3795 40.5851 60.5121 40.7262C60.6462 40.8673 60.8169 40.9379 61.0243 40.9379C61.1485 40.9379 61.2747 40.9061 61.4031 40.8426C61.5329 40.7791 61.6416 40.6818 61.7291 40.5506C61.8179 40.4193 61.8624 40.2521 61.8624 40.049ZM64.6904 38.1273V38.5506H63.0058V38.1273H64.6904ZM63.4968 37.3485H63.9962V40.4469C63.9962 40.5879 64.0167 40.6938 64.0576 40.7643C64.0999 40.8334 64.1536 40.88 64.2185 40.904C64.2848 40.9266 64.3546 40.9379 64.428 40.9379C64.483 40.9379 64.5282 40.935 64.5634 40.9294C64.5987 40.9223 64.6269 40.9167 64.6481 40.9125L64.7497 41.3611C64.7158 41.3738 64.6685 41.3865 64.6079 41.3992C64.5472 41.4133 64.4703 41.4204 64.3772 41.4204C64.2361 41.4204 64.0978 41.3901 63.9624 41.3294C63.8283 41.2687 63.7169 41.1763 63.628 41.0521C63.5405 40.928 63.4968 40.7714 63.4968 40.5823V37.3485ZM66.011 39.4225V41.3781H65.5116V37.0437H66.011V38.6352H66.0534C66.1296 38.4673 66.2438 38.334 66.3962 38.2352C66.55 38.135 66.7546 38.085 67.01 38.085C67.2315 38.085 67.4255 38.1294 67.592 38.2183C67.7585 38.3058 67.8876 38.4405 67.9793 38.6225C68.0724 38.8031 68.119 39.0331 68.119 39.3125V41.3781H67.6195V39.3463C67.6195 39.0881 67.5525 38.8885 67.4184 38.7474C67.2858 38.6049 67.1017 38.5336 66.8661 38.5336C66.7024 38.5336 66.5557 38.5682 66.4259 38.6373C66.2975 38.7065 66.1959 38.8074 66.1211 38.94C66.0477 39.0726 66.011 39.2335 66.011 39.4225ZM71.3015 37.0437V41.3781H70.7766V37.0437H71.3015ZM72.7856 39.4225V41.3781H72.2861V38.1273H72.7687V38.6352H72.811C72.8872 38.4701 73.0029 38.3375 73.1581 38.2373C73.3133 38.1358 73.5137 38.085 73.7592 38.085C73.9793 38.085 74.1719 38.1301 74.3369 38.2204C74.502 38.3093 74.6304 38.4447 74.7221 38.6268C74.8138 38.8074 74.8597 39.0359 74.8597 39.3125V41.3781H74.3602V39.3463C74.3602 39.0909 74.2939 38.892 74.1613 38.7495C74.0286 38.6056 73.8466 38.5336 73.6152 38.5336C73.4558 38.5336 73.3133 38.5682 73.1877 38.6373C73.0636 38.7065 72.9655 38.8074 72.8936 38.94C72.8216 39.0726 72.7856 39.2335 72.7856 39.4225ZM76.9999 41.4458C76.729 41.4458 76.4898 41.3774 76.2824 41.2405C76.075 41.1022 75.9128 40.9075 75.7957 40.6564C75.6785 40.4038 75.62 40.1054 75.62 39.7611C75.62 39.4197 75.6785 39.1234 75.7957 38.8723C75.9128 38.6211 76.0757 38.4271 76.2845 38.2902C76.4934 38.1534 76.7346 38.085 77.0083 38.085C77.22 38.085 77.3872 38.1202 77.5099 38.1908C77.6341 38.2599 77.7286 38.3389 77.7935 38.4278C77.8598 38.5153 77.9113 38.5872 77.948 38.6437H77.9904V37.0437H78.4898V41.3781H78.0073V40.8786H77.948C77.9113 40.9379 77.8591 41.0126 77.7914 41.1029C77.7237 41.1918 77.627 41.2715 77.5015 41.3421C77.3759 41.4112 77.2087 41.4458 76.9999 41.4458ZM77.0676 40.9971C77.268 40.9971 77.4373 40.9449 77.5755 40.8405C77.7138 40.7347 77.8189 40.5886 77.8909 40.4024C77.9628 40.2148 77.9988 39.9982 77.9988 39.7527C77.9988 39.51 77.9635 39.2976 77.893 39.1156C77.8225 38.9322 77.718 38.7897 77.5798 38.6881C77.4415 38.5851 77.2708 38.5336 77.0676 38.5336C76.856 38.5336 76.6796 38.588 76.5385 38.6966C76.3988 38.8038 76.2937 38.9499 76.2232 39.1347C76.154 39.3181 76.1195 39.5241 76.1195 39.7527C76.1195 39.9841 76.1547 40.1943 76.2253 40.3834C76.2972 40.571 76.4031 40.7206 76.5427 40.832C76.6838 40.9421 76.8588 40.9971 77.0676 40.9971ZM79.4739 41.3781V38.1273H79.9734V41.3781H79.4739ZM79.7279 37.5855C79.6306 37.5855 79.5466 37.5523 79.4761 37.486C79.4069 37.4197 79.3724 37.34 79.3724 37.2469C79.3724 37.1537 79.4069 37.074 79.4761 37.0077C79.5466 36.9414 79.6306 36.9082 79.7279 36.9082C79.8253 36.9082 79.9085 36.9414 79.9776 37.0077C80.0482 37.074 80.0835 37.1537 80.0835 37.2469C80.0835 37.34 80.0482 37.4197 79.9776 37.486C79.9085 37.5523 79.8253 37.5855 79.7279 37.5855ZM81.8448 41.4543C81.6388 41.4543 81.4519 41.4155 81.284 41.3379C81.1161 41.2588 80.9828 41.1453 80.884 40.9971C80.7852 40.8476 80.7358 40.667 80.7358 40.4553C80.7358 40.2691 80.7725 40.1181 80.8459 40.0024C80.9193 39.8853 81.0173 39.7936 81.1401 39.7273C81.2628 39.661 81.3983 39.6116 81.5464 39.5791C81.696 39.5453 81.8462 39.5185 81.9972 39.4987C82.1947 39.4733 82.3549 39.4543 82.4776 39.4416C82.6018 39.4275 82.6921 39.4042 82.7485 39.3717C82.8064 39.3393 82.8353 39.2828 82.8353 39.2024V39.1855C82.8353 38.9767 82.7782 38.8144 82.6639 38.6987C82.551 38.583 82.3796 38.5252 82.1496 38.5252C81.9111 38.5252 81.7242 38.5774 81.5888 38.6818C81.4533 38.7862 81.3581 38.8977 81.303 39.0162L80.829 38.8469C80.9136 38.6493 81.0265 38.4955 81.1676 38.3855C81.3101 38.274 81.4653 38.1964 81.6332 38.1527C81.8025 38.1075 81.969 38.085 82.1327 38.085C82.2371 38.085 82.357 38.0977 82.4925 38.1231C82.6293 38.147 82.7612 38.1971 82.8882 38.2733C83.0166 38.3495 83.1231 38.4645 83.2078 38.6183C83.2924 38.7721 83.3348 38.9781 83.3348 39.2363V41.3781H82.8353V40.9379H82.8099C82.776 41.0084 82.7196 41.0839 82.6406 41.1643C82.5616 41.2447 82.4565 41.3132 82.3253 41.3696C82.194 41.426 82.0339 41.4543 81.8448 41.4543ZM81.921 41.0056C82.1186 41.0056 82.285 40.9668 82.4205 40.8892C82.5574 40.8116 82.6604 40.7114 82.7295 40.5886C82.8 40.4659 82.8353 40.3368 82.8353 40.2013V39.7442C82.8141 39.7696 82.7676 39.7929 82.6956 39.814C82.6251 39.8338 82.5432 39.8514 82.4501 39.867C82.3584 39.8811 82.2688 39.8938 82.1813 39.9051C82.0953 39.9149 82.0254 39.9234 81.9718 39.9305C81.842 39.9474 81.7207 39.9749 81.6078 40.013C81.4963 40.0497 81.406 40.1054 81.3369 40.1802C81.2692 40.2536 81.2353 40.3537 81.2353 40.4807C81.2353 40.6543 81.2995 40.7855 81.4279 40.8744C81.5577 40.9618 81.7221 41.0056 81.921 41.0056ZM84.7459 39.4225V41.3781H84.2464V38.1273H84.7289V38.6352H84.7713C84.8475 38.4701 84.9632 38.3375 85.1184 38.2373C85.2736 38.1358 85.4739 38.085 85.7194 38.085C85.9395 38.085 86.1321 38.1301 86.2972 38.2204C86.4623 38.3093 86.5907 38.4447 86.6824 38.6268C86.7741 38.8074 86.8199 39.0359 86.8199 39.3125V41.3781H86.3205V39.3463C86.3205 39.0909 86.2542 38.892 86.1215 38.7495C85.9889 38.6056 85.8069 38.5336 85.5755 38.5336C85.4161 38.5336 85.2736 38.5682 85.148 38.6373C85.0238 38.7065 84.9258 38.8074 84.8538 38.94C84.7819 39.0726 84.7459 39.2335 84.7459 39.4225ZM88.4776 40.7855L88.4437 41.014C88.4198 41.1749 88.3831 41.347 88.3337 41.5304C88.2857 41.7139 88.2356 41.8867 88.1834 42.049C88.1312 42.2112 88.0882 42.3403 88.0543 42.4363H87.6734C87.6917 42.346 87.7157 42.2267 87.7453 42.0786C87.775 41.9304 87.8046 41.7647 87.8342 41.5812C87.8653 41.3992 87.8907 41.213 87.9104 41.0225L87.9358 40.7855H88.4776ZM94.5839 37.0437V41.3781H94.076L91.7141 37.9749H91.6718V41.3781H91.1469V37.0437H91.6548L94.0252 40.4553H94.0675V37.0437H94.5839ZM96.8871 41.4458C96.5936 41.4458 96.3361 41.3759 96.1146 41.2363C95.8945 41.0966 95.7224 40.9012 95.5982 40.65C95.4755 40.3989 95.4141 40.1054 95.4141 39.7696C95.4141 39.431 95.4755 39.1354 95.5982 38.8828C95.7224 38.6303 95.8945 38.4342 96.1146 38.2945C96.3361 38.1548 96.5936 38.085 96.8871 38.085C97.1806 38.085 97.4374 38.1548 97.6575 38.2945C97.879 38.4342 98.0511 38.6303 98.1739 38.8828C98.298 39.1354 98.3601 39.431 98.3601 39.7696C98.3601 40.1054 98.298 40.3989 98.1739 40.65C98.0511 40.9012 97.879 41.0966 97.6575 41.2363C97.4374 41.3759 97.1806 41.4458 96.8871 41.4458ZM96.8871 40.9971C97.11 40.9971 97.2934 40.94 97.4374 40.8257C97.5813 40.7114 97.6878 40.5611 97.7569 40.3749C97.8261 40.1887 97.8606 39.9869 97.8606 39.7696C97.8606 39.5523 97.8261 39.3499 97.7569 39.1622C97.6878 38.9745 97.5813 38.8229 97.4374 38.7072C97.2934 38.5915 97.11 38.5336 96.8871 38.5336C96.6642 38.5336 96.4807 38.5915 96.3368 38.7072C96.1929 38.8229 96.0864 38.9745 96.0173 39.1622C95.9481 39.3499 95.9136 39.5523 95.9136 39.7696C95.9136 39.9869 95.9481 40.1887 96.0173 40.3749C96.0864 40.5611 96.1929 40.7114 96.3368 40.8257C96.4807 40.94 96.6642 40.9971 96.8871 40.9971ZM99.1225 41.3781V38.1273H99.6051V38.6183H99.6389C99.6982 38.4574 99.8054 38.3269 99.9606 38.2268C100.116 38.1266 100.291 38.0765 100.485 38.0765C100.522 38.0765 100.568 38.0772 100.623 38.0786C100.678 38.08 100.72 38.0821 100.748 38.085V38.5929C100.731 38.5887 100.692 38.5823 100.632 38.5738C100.572 38.564 100.509 38.559 100.443 38.559C100.285 38.559 100.144 38.5922 100.02 38.6585C99.8971 38.7234 99.7998 38.8137 99.7278 38.9294C99.6573 39.0437 99.622 39.1742 99.622 39.3209V41.3781H99.1225ZM102.957 38.1273V38.5506H101.273V38.1273H102.957ZM101.764 37.3485H102.263V40.4469C102.263 40.5879 102.284 40.6938 102.325 40.7643C102.367 40.8334 102.421 40.88 102.485 40.904C102.552 40.9266 102.622 40.9379 102.695 40.9379C102.75 40.9379 102.795 40.935 102.83 40.9294C102.866 40.9223 102.894 40.9167 102.915 40.9125L103.017 41.3611C102.983 41.3738 102.936 41.3865 102.875 41.3992C102.814 41.4133 102.737 41.4204 102.644 41.4204C102.503 41.4204 102.365 41.3901 102.229 41.3294C102.095 41.2687 101.984 41.1763 101.895 41.0521C101.808 40.928 101.764 40.7714 101.764 40.5823V37.3485ZM104.278 39.4225V41.3781H103.779V37.0437H104.278V38.6352H104.32C104.397 38.4673 104.511 38.334 104.663 38.2352C104.817 38.135 105.022 38.085 105.277 38.085C105.499 38.085 105.693 38.1294 105.859 38.2183C106.026 38.3058 106.155 38.4405 106.246 38.6225C106.339 38.8031 106.386 39.0331 106.386 39.3125V41.3781H105.887V39.3463C105.887 39.0881 105.82 38.8885 105.685 38.7474C105.553 38.6049 105.369 38.5336 105.133 38.5336C104.969 38.5336 104.823 38.5682 104.693 38.6373C104.564 38.7065 104.463 38.8074 104.388 38.94C104.315 39.0726 104.278 39.2335 104.278 39.4225ZM109.569 37.0437V41.3781H109.044V37.0437H109.569ZM111.053 39.4225V41.3781H110.553V38.1273H111.036V38.6352H111.078C111.154 38.4701 111.27 38.3375 111.425 38.2373C111.58 38.1358 111.781 38.085 112.026 38.085C112.246 38.085 112.439 38.1301 112.604 38.2204C112.769 38.3093 112.897 38.4447 112.989 38.6268C113.081 38.8074 113.127 39.0359 113.127 39.3125V41.3781H112.627V39.3463C112.627 39.0909 112.561 38.892 112.428 38.7495C112.296 38.6056 112.114 38.5336 111.882 38.5336C111.723 38.5336 111.58 38.5682 111.455 38.6373C111.331 38.7065 111.233 38.8074 111.161 38.94C111.089 39.0726 111.053 39.2335 111.053 39.4225ZM115.267 41.4458C114.996 41.4458 114.757 41.3774 114.549 41.2405C114.342 41.1022 114.18 40.9075 114.063 40.6564C113.946 40.4038 113.887 40.1054 113.887 39.7611C113.887 39.4197 113.946 39.1234 114.063 38.8723C114.18 38.6211 114.343 38.4271 114.552 38.2902C114.76 38.1534 115.002 38.085 115.275 38.085C115.487 38.085 115.654 38.1202 115.777 38.1908C115.901 38.2599 115.996 38.3389 116.061 38.4278C116.127 38.5153 116.178 38.5872 116.215 38.6437H116.257V37.0437H116.757V41.3781H116.274V40.8786H116.215C116.178 40.9379 116.126 41.0126 116.058 41.1029C115.991 41.1918 115.894 41.2715 115.768 41.3421C115.643 41.4112 115.476 41.4458 115.267 41.4458ZM115.335 40.9971C115.535 40.9971 115.704 40.9449 115.843 40.8405C115.981 40.7347 116.086 40.5886 116.158 40.4024C116.23 40.2148 116.266 39.9982 116.266 39.7527C116.266 39.51 116.231 39.2976 116.16 39.1156C116.089 38.9322 115.985 38.7897 115.847 38.6881C115.709 38.5851 115.538 38.5336 115.335 38.5336C115.123 38.5336 114.947 38.588 114.806 38.6966C114.666 38.8038 114.561 38.9499 114.49 39.1347C114.421 39.3181 114.386 39.5241 114.386 39.7527C114.386 39.9841 114.422 40.1943 114.492 40.3834C114.564 40.571 114.67 40.7206 114.81 40.832C114.951 40.9421 115.126 40.9971 115.335 40.9971ZM117.741 41.3781V38.1273H118.24V41.3781H117.741ZM117.995 37.5855C117.898 37.5855 117.814 37.5523 117.743 37.486C117.674 37.4197 117.639 37.34 117.639 37.2469C117.639 37.1537 117.674 37.074 117.743 37.0077C117.814 36.9414 117.898 36.9082 117.995 36.9082C118.092 36.9082 118.176 36.9414 118.245 37.0077C118.315 37.074 118.35 37.1537 118.35 37.2469C118.35 37.34 118.315 37.4197 118.245 37.486C118.176 37.5523 118.092 37.5855 117.995 37.5855ZM120.112 41.4543C119.906 41.4543 119.719 41.4155 119.551 41.3379C119.383 41.2588 119.25 41.1453 119.151 40.9971C119.052 40.8476 119.003 40.667 119.003 40.4553C119.003 40.2691 119.04 40.1181 119.113 40.0024C119.186 39.8853 119.284 39.7936 119.407 39.7273C119.53 39.661 119.665 39.6116 119.813 39.5791C119.963 39.5453 120.113 39.5185 120.264 39.4987C120.462 39.4733 120.622 39.4543 120.745 39.4416C120.869 39.4275 120.959 39.4042 121.016 39.3717C121.073 39.3393 121.102 39.2828 121.102 39.2024V39.1855C121.102 38.9767 121.045 38.8144 120.931 38.6987C120.818 38.583 120.647 38.5252 120.417 38.5252C120.178 38.5252 119.991 38.5774 119.856 38.6818C119.72 38.7862 119.625 38.8977 119.57 39.0162L119.096 38.8469C119.181 38.6493 119.294 38.4955 119.435 38.3855C119.577 38.274 119.732 38.1964 119.9 38.1527C120.07 38.1075 120.236 38.085 120.4 38.085C120.504 38.085 120.624 38.0977 120.759 38.1231C120.896 38.147 121.028 38.1971 121.155 38.2733C121.284 38.3495 121.39 38.4645 121.475 38.6183C121.559 38.7721 121.602 38.9781 121.602 39.2363V41.3781H121.102V40.9379H121.077C121.043 41.0084 120.987 41.0839 120.908 41.1643C120.829 41.2447 120.723 41.3132 120.592 41.3696C120.461 41.426 120.301 41.4543 120.112 41.4543ZM120.188 41.0056C120.386 41.0056 120.552 40.9668 120.688 40.8892C120.824 40.8116 120.927 40.7114 120.997 40.5886C121.067 40.4659 121.102 40.3368 121.102 40.2013V39.7442C121.081 39.7696 121.035 39.7929 120.963 39.814C120.892 39.8338 120.81 39.8514 120.717 39.867C120.625 39.8811 120.536 39.8938 120.448 39.9051C120.362 39.9149 120.292 39.9234 120.239 39.9305C120.109 39.9474 119.988 39.9749 119.875 40.013C119.763 40.0497 119.673 40.1054 119.604 40.1802C119.536 40.2536 119.502 40.3537 119.502 40.4807C119.502 40.6543 119.567 40.7855 119.695 40.8744C119.825 40.9618 119.989 41.0056 120.188 41.0056ZM123.013 39.4225V41.3781H122.513V38.1273H122.996V38.6352H123.038C123.114 38.4701 123.23 38.3375 123.385 38.2373C123.541 38.1358 123.741 38.085 123.986 38.085C124.207 38.085 124.399 38.1301 124.564 38.2204C124.729 38.3093 124.858 38.4447 124.949 38.6268C125.041 38.8074 125.087 39.0359 125.087 39.3125V41.3781H124.587V39.3463C124.587 39.0909 124.521 38.892 124.389 38.7495C124.256 38.6056 124.074 38.5336 123.843 38.5336C123.683 38.5336 123.541 38.5682 123.415 38.6373C123.291 38.7065 123.193 38.8074 123.121 38.94C123.049 39.0726 123.013 39.2335 123.013 39.4225ZM126.745 40.7855L126.711 41.014C126.687 41.1749 126.65 41.347 126.601 41.5304C126.553 41.7139 126.503 41.8867 126.45 42.049C126.398 42.2112 126.355 42.3403 126.321 42.4363H125.94C125.959 42.346 125.983 42.2267 126.012 42.0786C126.042 41.9304 126.072 41.7647 126.101 41.5812C126.132 41.3992 126.158 41.213 126.177 41.0225L126.203 40.7855H126.745ZM132.902 38.3982H132.377C132.346 38.2472 132.292 38.1146 132.214 38.0003C132.138 37.886 132.045 37.7901 131.935 37.7125C131.826 37.6335 131.705 37.5742 131.573 37.5347C131.44 37.4952 131.302 37.4754 131.158 37.4754C130.895 37.4754 130.658 37.5417 130.445 37.6744C130.233 37.807 130.064 38.0024 129.939 38.2606C129.815 38.5188 129.753 38.8356 129.753 39.2109C129.753 39.5862 129.815 39.9029 129.939 40.1611C130.064 40.4193 130.233 40.6148 130.445 40.7474C130.658 40.88 130.895 40.9463 131.158 40.9463C131.302 40.9463 131.44 40.9266 131.573 40.8871C131.705 40.8476 131.826 40.789 131.935 40.7114C132.045 40.6324 132.138 40.5357 132.214 40.4215C132.292 40.3058 132.346 40.1731 132.377 40.0236H132.902C132.862 40.2451 132.79 40.4433 132.686 40.6183C132.581 40.7932 132.452 40.9421 132.296 41.0648C132.141 41.1862 131.967 41.2786 131.774 41.3421C131.582 41.4056 131.377 41.4373 131.158 41.4373C130.788 41.4373 130.459 41.347 130.172 41.1664C129.884 40.9858 129.657 40.729 129.492 40.3961C129.327 40.0631 129.245 39.668 129.245 39.2109C129.245 38.7537 129.327 38.3587 129.492 38.0257C129.657 37.6927 129.884 37.4359 130.172 37.2553C130.459 37.0747 130.788 36.9844 131.158 36.9844C131.377 36.9844 131.582 37.0162 131.774 37.0797C131.967 37.1432 132.141 37.2363 132.296 37.359C132.452 37.4804 132.581 37.6285 132.686 37.8035C132.79 37.977 132.862 38.1753 132.902 38.3982ZM134.182 39.4225V41.3781H133.682V37.0437H134.182V38.6352H134.224C134.3 38.4673 134.414 38.334 134.567 38.2352C134.721 38.135 134.925 38.085 135.181 38.085C135.402 38.085 135.596 38.1294 135.763 38.2183C135.929 38.3058 136.058 38.4405 136.15 38.6225C136.243 38.8031 136.29 39.0331 136.29 39.3125V41.3781H135.79V39.3463C135.79 39.0881 135.723 38.8885 135.589 38.7474C135.456 38.6049 135.272 38.5336 135.037 38.5336C134.873 38.5336 134.726 38.5682 134.596 38.6373C134.468 38.7065 134.366 38.8074 134.292 38.94C134.218 39.0726 134.182 39.2335 134.182 39.4225ZM137.203 41.3781V38.1273H137.703V41.3781H137.203ZM137.457 37.5855C137.36 37.5855 137.276 37.5523 137.205 37.486C137.136 37.4197 137.102 37.34 137.102 37.2469C137.102 37.1537 137.136 37.074 137.205 37.0077C137.276 36.9414 137.36 36.9082 137.457 36.9082C137.555 36.9082 137.638 36.9414 137.707 37.0077C137.778 37.074 137.813 37.1537 137.813 37.2469C137.813 37.34 137.778 37.4197 137.707 37.486C137.638 37.5523 137.555 37.5855 137.457 37.5855ZM139.117 39.4225V41.3781H138.618V38.1273H139.1V38.6352H139.142C139.219 38.4701 139.334 38.3375 139.49 38.2373C139.645 38.1358 139.845 38.085 140.091 38.085C140.311 38.085 140.503 38.1301 140.668 38.2204C140.833 38.3093 140.962 38.4447 141.054 38.6268C141.145 38.8074 141.191 39.0359 141.191 39.3125V41.3781H140.692V39.3463C140.692 39.0909 140.625 38.892 140.493 38.7495C140.36 38.6056 140.178 38.5336 139.947 38.5336C139.787 38.5336 139.645 38.5682 139.519 38.6373C139.395 38.7065 139.297 38.8074 139.225 38.94C139.153 39.0726 139.117 39.2335 139.117 39.4225ZM143.467 41.4458C143.154 41.4458 142.883 41.3767 142.656 41.2384C142.43 41.0987 142.256 40.904 142.133 40.6543C142.012 40.4031 141.951 40.111 141.951 39.7781C141.951 39.4451 142.012 39.1516 142.133 38.8977C142.256 38.6423 142.427 38.4433 142.646 38.3008C142.866 38.1569 143.123 38.085 143.416 38.085C143.585 38.085 143.752 38.1132 143.918 38.1696C144.083 38.226 144.233 38.3178 144.368 38.4447C144.504 38.5703 144.612 38.7368 144.692 38.9442C144.773 39.1516 144.813 39.407 144.813 39.7103V39.922H142.307V39.4902H144.305C144.305 39.3068 144.268 39.1432 144.195 38.9992C144.123 38.8553 144.02 38.7417 143.886 38.6585C143.753 38.5753 143.597 38.5336 143.416 38.5336C143.217 38.5336 143.045 38.583 142.9 38.6818C142.756 38.7791 142.645 38.9061 142.567 39.0627C142.49 39.2193 142.451 39.3872 142.451 39.5664V39.8543C142.451 40.0998 142.493 40.3079 142.578 40.4786C142.664 40.6479 142.783 40.777 142.936 40.8659C143.088 40.9534 143.265 40.9971 143.467 40.9971C143.598 40.9971 143.717 40.9788 143.822 40.9421C143.93 40.904 144.022 40.8476 144.1 40.7728C144.177 40.6966 144.237 40.6021 144.279 40.4892L144.762 40.6246C144.711 40.7883 144.626 40.9322 144.506 41.0564C144.386 41.1791 144.238 41.2751 144.061 41.3442C143.885 41.4119 143.687 41.4458 143.467 41.4458ZM147.875 38.8553L147.427 38.9823C147.398 38.9075 147.357 38.8349 147.302 38.7643C147.248 38.6924 147.175 38.6331 147.082 38.5865C146.988 38.54 146.869 38.5167 146.724 38.5167C146.525 38.5167 146.359 38.5626 146.227 38.6543C146.095 38.7446 146.03 38.8596 146.03 38.9992C146.03 39.1234 146.075 39.2215 146.165 39.2934C146.255 39.3654 146.397 39.4253 146.588 39.4733L147.071 39.5918C147.362 39.6624 147.578 39.7703 147.721 39.9156C147.863 40.0596 147.934 40.2451 147.934 40.4722C147.934 40.6585 147.881 40.825 147.774 40.9717C147.668 41.1185 147.52 41.2341 147.329 41.3188C147.139 41.4035 146.917 41.4458 146.665 41.4458C146.333 41.4458 146.059 41.3738 145.841 41.2299C145.624 41.086 145.487 40.8758 145.429 40.5992L145.903 40.4807C145.948 40.6557 146.033 40.7869 146.159 40.8744C146.286 40.9618 146.452 41.0056 146.656 41.0056C146.889 41.0056 147.074 40.9562 147.211 40.8574C147.349 40.7573 147.418 40.6373 147.418 40.4976C147.418 40.3848 147.379 40.2902 147.3 40.214C147.221 40.1364 147.099 40.0786 146.936 40.0405L146.394 39.9135C146.096 39.843 145.877 39.7336 145.738 39.5855C145.599 39.4359 145.53 39.249 145.53 39.0246C145.53 38.8412 145.582 38.679 145.685 38.5379C145.789 38.3968 145.931 38.286 146.11 38.2056C146.291 38.1252 146.495 38.085 146.724 38.085C147.046 38.085 147.298 38.1555 147.482 38.2966C147.666 38.4377 147.798 38.6239 147.875 38.8553ZM150.049 41.4458C149.736 41.4458 149.466 41.3767 149.239 41.2384C149.013 41.0987 148.839 40.904 148.716 40.6543C148.595 40.4031 148.534 40.111 148.534 39.7781C148.534 39.4451 148.595 39.1516 148.716 38.8977C148.839 38.6423 149.009 38.4433 149.228 38.3008C149.448 38.1569 149.705 38.085 149.998 38.085C150.168 38.085 150.335 38.1132 150.5 38.1696C150.665 38.226 150.815 38.3178 150.951 38.4447C151.086 38.5703 151.194 38.7368 151.275 38.9442C151.355 39.1516 151.395 39.407 151.395 39.7103V39.922H148.889V39.4902H150.887C150.887 39.3068 150.851 39.1432 150.777 38.9992C150.705 38.8553 150.602 38.7417 150.468 38.6585C150.336 38.5753 150.179 38.5336 149.998 38.5336C149.8 38.5336 149.627 38.583 149.482 38.6818C149.338 38.7791 149.227 38.9061 149.15 39.0627C149.072 39.2193 149.033 39.3872 149.033 39.5664V39.8543C149.033 40.0998 149.076 40.3079 149.16 40.4786C149.246 40.6479 149.366 40.777 149.518 40.8659C149.67 40.9534 149.848 40.9971 150.049 40.9971C150.18 40.9971 150.299 40.9788 150.405 40.9421C150.512 40.904 150.604 40.8476 150.682 40.7728C150.76 40.6966 150.82 40.6021 150.862 40.4892L151.345 40.6246C151.294 40.7883 151.208 40.9322 151.088 41.0564C150.968 41.1791 150.82 41.2751 150.644 41.3442C150.468 41.4119 150.269 41.4458 150.049 41.4458ZM154.077 37.0437L155.364 40.6924H155.414L156.701 37.0437H157.251L155.66 41.3781H155.118L153.527 37.0437H154.077ZM158.919 41.4458C158.606 41.4458 158.336 41.3767 158.109 41.2384C157.883 41.0987 157.709 40.904 157.586 40.6543C157.464 40.4031 157.404 40.111 157.404 39.7781C157.404 39.4451 157.464 39.1516 157.586 38.8977C157.709 38.6423 157.879 38.4433 158.098 38.3008C158.318 38.1569 158.575 38.085 158.868 38.085C159.038 38.085 159.205 38.1132 159.37 38.1696C159.535 38.226 159.685 38.3178 159.821 38.4447C159.956 38.5703 160.064 38.7368 160.144 38.9442C160.225 39.1516 160.265 39.407 160.265 39.7103V39.922H157.759V39.4902H159.757C159.757 39.3068 159.72 39.1432 159.647 38.9992C159.575 38.8553 159.472 38.7417 159.338 38.6585C159.205 38.5753 159.049 38.5336 158.868 38.5336C158.669 38.5336 158.497 38.583 158.352 38.6818C158.208 38.7791 158.097 38.9061 158.02 39.0627C157.942 39.2193 157.903 39.3872 157.903 39.5664V39.8543C157.903 40.0998 157.946 40.3079 158.03 40.4786C158.116 40.6479 158.235 40.777 158.388 40.8659C158.54 40.9534 158.717 40.9971 158.919 40.9971C159.05 40.9971 159.169 40.9788 159.275 40.9421C159.382 40.904 159.474 40.8476 159.552 40.7728C159.629 40.6966 159.689 40.6021 159.732 40.4892L160.214 40.6246C160.164 40.7883 160.078 40.9322 159.958 41.0564C159.838 41.1791 159.69 41.2751 159.514 41.3442C159.337 41.4119 159.139 41.4458 158.919 41.4458ZM162.337 42.6648C162.096 42.6648 161.888 42.6338 161.715 42.5717C161.541 42.511 161.397 42.4306 161.281 42.3304C161.167 42.2317 161.076 42.1259 161.008 42.013L161.406 41.7336C161.451 41.7929 161.508 41.8606 161.577 41.9368C161.646 42.0144 161.741 42.0814 161.861 42.1378C161.982 42.1957 162.141 42.2246 162.337 42.2246C162.599 42.2246 162.816 42.1611 162.987 42.0341C163.158 41.9072 163.243 41.7082 163.243 41.4373V40.777H163.201C163.164 40.8363 163.112 40.9096 163.044 40.9971C162.978 41.0832 162.882 41.1601 162.756 41.2278C162.632 41.2941 162.464 41.3273 162.252 41.3273C161.99 41.3273 161.754 41.2652 161.546 41.141C161.338 41.0169 161.174 40.8363 161.052 40.5992C160.932 40.3622 160.873 40.0744 160.873 39.7357C160.873 39.4028 160.931 39.1128 161.048 38.8659C161.165 38.6176 161.328 38.4257 161.537 38.2902C161.746 38.1534 161.987 38.085 162.261 38.085C162.473 38.085 162.64 38.1202 162.765 38.1908C162.89 38.2599 162.986 38.3389 163.052 38.4278C163.12 38.5153 163.172 38.5872 163.209 38.6437H163.26V38.1273H163.742V41.4712C163.742 41.7505 163.679 41.9777 163.552 42.1527C163.426 42.329 163.257 42.4581 163.044 42.54C162.832 42.6232 162.597 42.6648 162.337 42.6648ZM162.32 40.8786C162.52 40.8786 162.69 40.8327 162.828 40.741C162.966 40.6493 163.071 40.5174 163.143 40.3453C163.215 40.1731 163.251 39.9671 163.251 39.7273C163.251 39.4931 163.216 39.2864 163.146 39.1072C163.075 38.928 162.971 38.7876 162.832 38.686C162.694 38.5844 162.523 38.5336 162.32 38.5336C162.108 38.5336 161.932 38.5872 161.791 38.6945C161.651 38.8017 161.546 38.9456 161.476 39.1262C161.407 39.3068 161.372 39.5072 161.372 39.7273C161.372 39.953 161.407 40.1527 161.478 40.3262C161.55 40.4983 161.656 40.6338 161.795 40.7326C161.936 40.8299 162.111 40.8786 162.32 40.8786ZM166.401 41.3781V37.0437H167.865C168.204 37.0437 168.482 37.1015 168.699 37.2172C168.916 37.3315 169.077 37.4888 169.181 37.6892C169.286 37.8895 169.338 38.1174 169.338 38.3728C169.338 38.6282 169.286 38.8546 169.181 39.0521C169.077 39.2497 168.917 39.4049 168.701 39.5178C168.485 39.6292 168.209 39.6849 167.874 39.6849H166.688V39.2109H167.857C168.088 39.2109 168.274 39.177 168.415 39.1093C168.558 39.0416 168.661 38.9456 168.724 38.8215C168.789 38.6959 168.822 38.5463 168.822 38.3728C168.822 38.1992 168.789 38.0476 168.724 37.9178C168.659 37.788 168.556 37.6878 168.413 37.6172C168.271 37.5453 168.082 37.5093 167.848 37.5093H166.925V41.3781H166.401ZM168.441 39.431L169.507 41.3781H168.898L167.848 39.431H168.441ZM171.473 41.4458C171.16 41.4458 170.89 41.3767 170.662 41.2384C170.437 41.0987 170.262 40.904 170.14 40.6543C170.018 40.4031 169.958 40.111 169.958 39.7781C169.958 39.4451 170.018 39.1516 170.14 38.8977C170.262 38.6423 170.433 38.4433 170.652 38.3008C170.872 38.1569 171.129 38.085 171.422 38.085C171.592 38.085 171.759 38.1132 171.924 38.1696C172.089 38.226 172.239 38.3178 172.375 38.4447C172.51 38.5703 172.618 38.7368 172.698 38.9442C172.779 39.1516 172.819 39.407 172.819 39.7103V39.922H170.313V39.4902H172.311C172.311 39.3068 172.274 39.1432 172.201 38.9992C172.129 38.8553 172.026 38.7417 171.892 38.6585C171.759 38.5753 171.603 38.5336 171.422 38.5336C171.223 38.5336 171.051 38.583 170.906 38.6818C170.762 38.7791 170.651 38.9061 170.574 39.0627C170.496 39.2193 170.457 39.3872 170.457 39.5664V39.8543C170.457 40.0998 170.499 40.3079 170.584 40.4786C170.67 40.6479 170.789 40.777 170.942 40.8659C171.094 40.9534 171.271 40.9971 171.473 40.9971C171.604 40.9971 171.723 40.9788 171.829 40.9421C171.936 40.904 172.028 40.8476 172.106 40.7728C172.183 40.6966 172.243 40.6021 172.286 40.4892L172.768 40.6246C172.717 40.7883 172.632 40.9322 172.512 41.0564C172.392 41.1791 172.244 41.2751 172.068 41.3442C171.891 41.4119 171.693 41.4458 171.473 41.4458ZM175.881 38.8553L175.433 38.9823C175.405 38.9075 175.363 38.8349 175.308 38.7643C175.254 38.6924 175.181 38.6331 175.088 38.5865C174.995 38.54 174.875 38.5167 174.73 38.5167C174.531 38.5167 174.365 38.5626 174.233 38.6543C174.102 38.7446 174.036 38.8596 174.036 38.9992C174.036 39.1234 174.081 39.2215 174.171 39.2934C174.262 39.3654 174.403 39.4253 174.595 39.4733L175.077 39.5918C175.368 39.6624 175.584 39.7703 175.727 39.9156C175.869 40.0596 175.941 40.2451 175.941 40.4722C175.941 40.6585 175.887 40.825 175.78 40.9717C175.674 41.1185 175.526 41.2341 175.335 41.3188C175.145 41.4035 174.923 41.4458 174.671 41.4458C174.339 41.4458 174.065 41.3738 173.848 41.2299C173.63 41.086 173.493 40.8758 173.435 40.5992L173.909 40.4807C173.954 40.6557 174.039 40.7869 174.165 40.8744C174.292 40.9618 174.458 41.0056 174.662 41.0056C174.895 41.0056 175.08 40.9562 175.217 40.8574C175.355 40.7573 175.424 40.6373 175.424 40.4976C175.424 40.3848 175.385 40.2902 175.306 40.214C175.227 40.1364 175.105 40.0786 174.942 40.0405L174.4 39.9135C174.102 39.843 173.884 39.7336 173.744 39.5855C173.606 39.4359 173.536 39.249 173.536 39.0246C173.536 38.8412 173.588 38.679 173.691 38.5379C173.795 38.3968 173.937 38.286 174.116 38.2056C174.297 38.1252 174.502 38.085 174.73 38.085C175.052 38.085 175.304 38.1555 175.488 38.2966C175.673 38.4377 175.804 38.6239 175.881 38.8553ZM178.106 38.1273V38.5506H176.422V38.1273H178.106ZM176.913 37.3485H177.412V40.4469C177.412 40.5879 177.433 40.6938 177.473 40.7643C177.516 40.8334 177.569 40.88 177.634 40.904C177.701 40.9266 177.77 40.9379 177.844 40.9379C177.899 40.9379 177.944 40.935 177.979 40.9294C178.015 40.9223 178.043 40.9167 178.064 40.9125L178.166 41.3611C178.132 41.3738 178.084 41.3865 178.024 41.3992C177.963 41.4133 177.886 41.4204 177.793 41.4204C177.652 41.4204 177.514 41.3901 177.378 41.3294C177.244 41.2687 177.133 41.1763 177.044 41.0521C176.956 40.928 176.913 40.7714 176.913 40.5823V37.3485ZM179.814 41.4543C179.608 41.4543 179.421 41.4155 179.253 41.3379C179.085 41.2588 178.952 41.1453 178.853 40.9971C178.755 40.8476 178.705 40.667 178.705 40.4553C178.705 40.2691 178.742 40.1181 178.815 40.0024C178.889 39.8853 178.987 39.7936 179.109 39.7273C179.232 39.661 179.368 39.6116 179.516 39.5791C179.665 39.5453 179.816 39.5185 179.967 39.4987C180.164 39.4733 180.324 39.4543 180.447 39.4416C180.571 39.4275 180.661 39.4042 180.718 39.3717C180.776 39.3393 180.805 39.2828 180.805 39.2024V39.1855C180.805 38.9767 180.748 38.8144 180.633 38.6987C180.52 38.583 180.349 38.5252 180.119 38.5252C179.881 38.5252 179.694 38.5774 179.558 38.6818C179.423 38.7862 179.327 38.8977 179.272 39.0162L178.798 38.8469C178.883 38.6493 178.996 38.4955 179.137 38.3855C179.279 38.274 179.435 38.1964 179.603 38.1527C179.772 38.1075 179.938 38.085 180.102 38.085C180.206 38.085 180.326 38.0977 180.462 38.1231C180.599 38.147 180.731 38.1971 180.858 38.2733C180.986 38.3495 181.093 38.4645 181.177 38.6183C181.262 38.7721 181.304 38.9781 181.304 39.2363V41.3781H180.805V40.9379H180.779C180.745 41.0084 180.689 41.0839 180.61 41.1643C180.531 41.2447 180.426 41.3132 180.295 41.3696C180.163 41.426 180.003 41.4543 179.814 41.4543ZM179.89 41.0056C180.088 41.0056 180.254 40.9668 180.39 40.8892C180.527 40.8116 180.63 40.7114 180.699 40.5886C180.769 40.4659 180.805 40.3368 180.805 40.2013V39.7442C180.784 39.7696 180.737 39.7929 180.665 39.814C180.594 39.8338 180.513 39.8514 180.42 39.867C180.328 39.8811 180.238 39.8938 180.151 39.9051C180.065 39.9149 179.995 39.9234 179.941 39.9305C179.811 39.9474 179.69 39.9749 179.577 40.013C179.466 40.0497 179.375 40.1054 179.306 40.1802C179.239 40.2536 179.205 40.3537 179.205 40.4807C179.205 40.6543 179.269 40.7855 179.397 40.8744C179.527 40.9618 179.691 41.0056 179.89 41.0056ZM184.264 40.049V38.1273H184.764V41.3781H184.264V40.8278H184.231C184.154 40.9929 184.036 41.1333 183.875 41.249C183.714 41.3632 183.511 41.4204 183.266 41.4204C183.062 41.4204 182.882 41.3759 182.724 41.2871C182.566 41.1968 182.442 41.0613 182.351 40.8807C182.261 40.6987 182.216 40.4694 182.216 40.1929V38.1273H182.715V40.159C182.715 40.3961 182.782 40.5851 182.914 40.7262C183.048 40.8673 183.219 40.9379 183.426 40.9379C183.551 40.9379 183.677 40.9061 183.805 40.8426C183.935 40.7791 184.044 40.6818 184.131 40.5506C184.22 40.4193 184.264 40.2521 184.264 40.049ZM185.679 41.3781V38.1273H186.161V38.6183H186.195C186.254 38.4574 186.362 38.3269 186.517 38.2268C186.672 38.1266 186.847 38.0765 187.042 38.0765C187.078 38.0765 187.124 38.0772 187.179 38.0786C187.234 38.08 187.276 38.0821 187.304 38.085V38.5929C187.287 38.5887 187.248 38.5823 187.188 38.5738C187.128 38.564 187.066 38.559 186.999 38.559C186.841 38.559 186.7 38.5922 186.576 38.6585C186.453 38.7234 186.356 38.8137 186.284 38.9294C186.213 39.0437 186.178 39.1742 186.178 39.3209V41.3781H185.679ZM188.853 41.4543C188.647 41.4543 188.46 41.4155 188.292 41.3379C188.124 41.2588 187.991 41.1453 187.892 40.9971C187.793 40.8476 187.744 40.667 187.744 40.4553C187.744 40.2691 187.781 40.1181 187.854 40.0024C187.927 39.8853 188.025 39.7936 188.148 39.7273C188.271 39.661 188.406 39.6116 188.554 39.5791C188.704 39.5453 188.854 39.5185 189.005 39.4987C189.203 39.4733 189.363 39.4543 189.486 39.4416C189.61 39.4275 189.7 39.4042 189.757 39.3717C189.814 39.3393 189.843 39.2828 189.843 39.2024V39.1855C189.843 38.9767 189.786 38.8144 189.672 38.6987C189.559 38.583 189.388 38.5252 189.158 38.5252C188.919 38.5252 188.732 38.5774 188.597 38.6818C188.461 38.7862 188.366 38.8977 188.311 39.0162L187.837 38.8469C187.922 38.6493 188.034 38.4955 188.176 38.3855C188.318 38.274 188.473 38.1964 188.641 38.1527C188.81 38.1075 188.977 38.085 189.141 38.085C189.245 38.085 189.365 38.0977 189.5 38.1231C189.637 38.147 189.769 38.1971 189.896 38.2733C190.025 38.3495 190.131 38.4645 190.216 38.6183C190.3 38.7721 190.343 38.9781 190.343 39.2363V41.3781H189.843V40.9379H189.818C189.784 41.0084 189.728 41.0839 189.649 41.1643C189.57 41.2447 189.464 41.3132 189.333 41.3696C189.202 41.426 189.042 41.4543 188.853 41.4543ZM188.929 41.0056C189.127 41.0056 189.293 40.9668 189.428 40.8892C189.565 40.8116 189.668 40.7114 189.737 40.5886C189.808 40.4659 189.843 40.3368 189.843 40.2013V39.7442C189.822 39.7696 189.776 39.7929 189.704 39.814C189.633 39.8338 189.551 39.8514 189.458 39.867C189.366 39.8811 189.277 39.8938 189.189 39.9051C189.103 39.9149 189.033 39.9234 188.98 39.9305C188.85 39.9474 188.729 39.9749 188.616 40.013C188.504 40.0497 188.414 40.1054 188.345 40.1802C188.277 40.2536 188.243 40.3537 188.243 40.4807C188.243 40.6543 188.307 40.7855 188.436 40.8744C188.566 40.9618 188.73 41.0056 188.929 41.0056ZM191.754 39.4225V41.3781H191.254V38.1273H191.737V38.6352H191.779C191.855 38.4701 191.971 38.3375 192.126 38.2373C192.282 38.1358 192.482 38.085 192.727 38.085C192.947 38.085 193.14 38.1301 193.305 38.2204C193.47 38.3093 193.599 38.4447 193.69 38.6268C193.782 38.8074 193.828 39.0359 193.828 39.3125V41.3781H193.328V39.3463C193.328 39.0909 193.262 38.892 193.13 38.7495C192.997 38.6056 192.815 38.5336 192.583 38.5336C192.424 38.5336 192.282 38.5682 192.156 38.6373C192.032 38.7065 191.934 38.8074 191.862 38.94C191.79 39.0726 191.754 39.2335 191.754 39.4225ZM196.154 38.1273V38.5506H194.47V38.1273H196.154ZM194.961 37.3485H195.46V40.4469C195.46 40.5879 195.481 40.6938 195.522 40.7643C195.564 40.8334 195.617 40.88 195.682 40.904C195.749 40.9266 195.819 40.9379 195.892 40.9379C195.947 40.9379 195.992 40.935 196.027 40.9294C196.063 40.9223 196.091 40.9167 196.112 40.9125L196.214 41.3611C196.18 41.3738 196.132 41.3865 196.072 41.3992C196.011 41.4133 195.934 41.4204 195.841 41.4204C195.7 41.4204 195.562 41.3901 195.426 41.3294C195.292 41.2687 195.181 41.1763 195.092 41.0521C195.004 40.928 194.961 40.7714 194.961 40.5823V37.3485Z" fill="#007A48"/>
<path fill-rule="evenodd" clip-rule="evenodd" d="M25.3259 13.362L24.1804 12.0737C23.9057 12.5102 23.5127 12.8598 23.047 13.0817C22.9825 13.1187 22.9148 13.1558 22.8458 13.192L22.6019 13.3202L22.5165 13.0582C22.4883 12.9715 22.4185 12.753 22.3256 12.4605C22.1344 12.5153 21.974 12.5614 21.8759 12.5899C21.8526 12.7387 21.8237 12.8913 21.7905 13.0366C21.7453 13.51 21.5228 13.9489 21.1675 14.2651L21.1462 14.2767C20.8313 14.4392 20.4879 14.2061 20.2273 13.9394C20.2211 14.0146 20.2156 14.0836 20.212 14.1359L20.2111 14.1492L20.2025 14.1974C20.1856 14.4161 20.1248 14.6292 20.0237 14.8239C19.9227 15.0186 19.7834 15.191 19.6142 15.3306C19.2861 15.5186 18.8898 15.436 18.4364 15.0853L18.4276 15.0784L18.4195 15.0708C18.2731 14.9257 18.1449 14.7633 18.0378 14.5872L18.0361 14.588C18.3815 15.3306 18.6766 16.0219 18.9213 16.6617C19.0296 16.258 19.2183 15.8803 19.476 15.5512C19.7338 15.2222 20.0553 14.9486 20.4213 14.7467C20.8106 14.518 21.241 14.3679 21.6881 14.3049C21.8834 14.272 22.0839 14.2912 22.2693 14.3607C22.4547 14.4301 22.6185 14.5473 22.744 14.7004C23.1715 15.2698 22.9397 16.254 22.8048 16.6908C23.3074 16.9743 23.7804 17.3073 24.2167 17.6848C24.3905 17.7997 24.5869 17.8759 24.7927 17.9083C24.6888 17.8677 24.5917 17.8115 24.5046 17.7419L24.4958 17.7351L24.4877 17.7275C24.0116 17.2803 23.3553 15.5676 24.0575 14.4218L24.0657 14.4084L24.0756 14.3963C24.126 14.3344 24.1602 14.2863 24.1933 14.2398C24.3705 13.9942 24.5962 13.7876 24.8565 13.6328L25.0742 13.4781L25.1975 13.7151C25.2856 13.8847 25.7206 15.0162 25.9499 15.6166C25.9711 15.5625 26.0101 15.5173 26.0605 15.4884C26.1182 15.4559 26.186 15.446 26.2506 15.4605C26.2343 15.4238 26.2178 15.3873 26.202 15.3488L26.1981 15.3393L26.195 15.3295C26.1745 15.2676 25.9064 14.5785 25.6934 14.0334L25.5138 14.1278L25.2159 13.4226L25.3259 13.362Z" fill="#72BF44"/>
<path fill-rule="evenodd" clip-rule="evenodd" d="M25.2685 17.8845L25.2559 17.8912C25.3856 17.8625 25.5103 17.8145 25.6259 17.7489C25.7428 17.6919 25.8414 17.6034 25.9106 17.4933L25.9132 17.4501L25.9372 17.4052C25.9479 17.3852 25.959 17.3661 25.9702 17.3472C25.8488 17.3523 25.7296 17.3135 25.6344 17.238C25.6209 17.3651 25.5815 17.488 25.5185 17.5992C25.4556 17.7104 25.3705 17.8075 25.2685 17.8845Z" fill="#72BF44"/>
<path fill-rule="evenodd" clip-rule="evenodd" d="M24.5918 15.3481C24.6332 15.5088 24.6922 15.6645 24.7677 15.8123C24.731 15.686 24.6867 15.5619 24.635 15.4409C24.6216 15.4122 24.6069 15.3806 24.5918 15.3481Z" fill="#72BF44"/>
<path fill-rule="evenodd" clip-rule="evenodd" d="M26.9368 13.7593L26.9428 13.5451C26.9462 13.4559 26.9545 13.3669 26.9679 13.2785C26.9195 13.3532 26.8635 13.4225 26.8008 13.4856C26.8383 13.5631 26.8852 13.6574 26.9368 13.7593Z" fill="#72BF44"/>
<path fill-rule="evenodd" clip-rule="evenodd" d="M31.7173 12.0892C31.7288 12.1234 31.7483 12.1542 31.7742 12.1791C31.8001 12.2041 31.8317 12.2223 31.8663 12.2324C31.9008 12.2425 31.9373 12.244 31.9725 12.2369C32.0078 12.2298 32.0408 12.2143 32.0688 12.1917C32.0868 12.1824 32.1048 12.1727 32.1228 12.1624C32.5776 11.863 32.9394 11.4422 33.1673 10.9477C33.1856 10.8347 33.1398 10.4124 32.789 10.3418L32.7814 10.3403L32.7739 10.3383C32.6729 10.3108 32.5185 10.2818 32.3822 10.2563C32.269 10.2398 32.1573 10.2147 32.048 10.1811C31.9884 10.1619 31.9346 10.128 31.8917 10.0823C31.3743 10.1582 31.097 10.2156 30.9961 10.2381C31.1658 10.6473 31.5023 11.5246 31.7173 12.0892Z" fill="#72BF44"/>
<path fill-rule="evenodd" clip-rule="evenodd" d="M29.7851 10.7169C29.8356 10.655 29.8699 10.6069 29.903 10.5603C29.9258 10.5283 29.9474 10.4985 29.9698 10.4694L27.8212 10.9527L24.8672 11.8793L24.9819 12.9835L25.3173 12.2179L26.0006 11.7819L26.1246 11.998L26.3998 12.4782C26.6111 12.4936 26.9412 12.5608 27.0432 12.8227C27.0517 12.845 27.0582 12.868 27.0626 12.8915C27.1177 12.7032 27.2371 12.5403 27.4001 12.431C27.4703 12.3914 27.5484 12.3677 27.6288 12.3617C27.7092 12.3557 27.7899 12.3676 27.8652 12.3964C27.9215 12.1087 28.0797 11.8511 28.3108 11.6708C28.4143 11.6141 28.5334 11.5927 28.6502 11.6099C28.7669 11.6271 28.8748 11.6819 28.9575 11.7661L28.9634 11.771C29.3034 12.2413 29.529 12.7845 29.6222 13.3573L29.6825 13.2251L29.7154 13.239C29.539 12.8449 29.4521 12.4166 29.4611 11.9849C29.47 11.5532 29.5745 11.1289 29.7671 10.7424L29.7753 10.7291L29.7851 10.7169Z" fill="#72BF44"/>
<path fill-rule="evenodd" clip-rule="evenodd" d="M30.3439 11.7615L30.3008 11.6686C30.3421 11.8294 30.4011 11.9851 30.4767 12.1329C30.44 12.0065 30.3956 11.8825 30.3439 11.7615Z" fill="#72BF44"/>
<path fill-rule="evenodd" clip-rule="evenodd" d="M13.8968 16.8041L13.8008 16.8558L13.8517 16.99C13.8575 16.966 13.8631 16.9433 13.8687 16.9211C13.8785 16.8813 13.8877 16.8437 13.8968 16.8041Z" fill="#72BF44"/>
<path fill-rule="evenodd" clip-rule="evenodd" d="M5.60067 22.7838C5.98174 22.7381 6.34626 22.6015 6.66354 22.3856C7.24942 22.0496 7.79072 21.6413 8.2747 21.1702C8.51715 20.8975 8.6837 20.5659 8.75767 20.2086C8.76071 20.0201 8.72745 19.8329 8.6597 19.657C8.51418 19.7393 8.39823 19.8059 8.3167 19.8544C7.03771 20.6377 5.8434 21.5516 4.75293 22.5813C5.00989 22.7296 5.30443 22.7999 5.60067 22.7838Z" fill="#72BF44"/>
<path fill-rule="evenodd" clip-rule="evenodd" d="M33.9882 9.83862C33.9322 9.84389 33.8779 9.84916 33.8237 9.85443C33.914 9.97536 33.9867 10.1085 34.0397 10.2498C34.1605 10.6542 34.1591 11.0853 34.0357 11.4889C33.9122 11.8925 33.6722 12.2505 33.3457 12.5181C33.0162 12.8304 32.6572 13.11 32.2736 13.3529C32.1664 13.4167 32.052 13.4676 31.9328 13.5047L31.9103 13.5176L31.875 13.5196L31.8687 13.5209C31.6974 13.5613 31.5174 13.542 31.3586 13.4662L31.3577 13.4786L31.3523 13.5092C31.3412 13.6448 31.3022 13.7767 31.2377 13.8965C31.1733 14.0163 31.0847 14.1216 30.9776 14.2055C30.8568 14.2643 30.7206 14.2839 30.588 14.2615C30.4555 14.2391 30.3333 14.1758 30.2385 14.0805C30.2512 14.2262 30.2248 14.3727 30.162 14.5047C30.0991 14.6368 30.0022 14.7497 29.8811 14.8317C29.7111 14.9219 29.513 14.9436 29.3275 14.8923C29.1862 14.8498 29.0636 14.7604 28.9801 14.6388C29.0087 14.717 29.0396 14.7994 29.0728 14.8859L29.1413 15.0641L28.1504 15.6897L27.4673 13.7402L27.464 13.719C27.4594 13.6966 27.4518 13.6749 27.4413 13.6546C27.4301 13.6591 27.4193 13.6644 27.4089 13.6705C27.3793 13.6881 27.3513 13.7081 27.3252 13.7305L27.0428 13.9663C27.132 14.1401 27.2248 14.3189 27.3014 14.4656L27.4712 14.1367C27.4712 14.1367 27.6615 14.469 27.7798 14.699C27.9951 15.1171 28.2125 16.1104 27.5311 16.5006C27.4928 16.5225 27.453 16.5417 27.412 16.558L27.3969 16.564L27.3812 16.5679C27.1787 16.6177 26.8769 16.4479 26.5896 16.056C26.568 16.3632 26.5005 16.6655 26.3891 16.9527C26.4929 16.9053 26.6087 16.8913 26.7207 16.9125C26.8327 16.9336 26.9354 16.9889 27.0147 17.0708C27.1073 17.158 27.1783 17.2657 27.222 17.3852C27.2657 17.5047 27.2809 17.6327 27.2663 17.7591C27.2157 17.9434 27.1238 18.1137 26.9977 18.2572C26.8716 18.4008 26.7145 18.5138 26.5384 18.5877C26.3203 18.7082 26.0943 18.8139 25.862 18.904C25.8216 18.9204 25.7879 18.9339 25.7631 18.9447L25.7498 18.9506L25.7359 18.9547C25.2547 19.0694 24.7548 19.0821 24.2684 18.9918C23.782 18.9016 23.3198 18.7105 22.9118 18.4308C22.8803 18.412 22.8493 18.393 22.8187 18.374L23.2892 19.1439L21.2969 20.2726L21.0194 19.6063L21.3155 19.243C21.2455 19.0713 21.1698 18.8865 21.0914 18.6956L21.0639 18.7375L21.0562 18.747C20.9677 18.8613 20.8592 18.9586 20.7358 19.034C20.6339 19.0923 20.5181 19.1217 20.4007 19.1191C20.2834 19.1164 20.169 19.0818 20.0698 19.019C20.0503 19.0091 20.0317 18.9996 20.0137 18.992L19.9958 18.9845L19.9794 18.9741C19.8331 18.8815 19.6943 18.7774 19.5644 18.6627C19.7595 19.3524 19.8315 20.0709 19.7772 20.7855C19.7741 20.8106 19.7715 20.8312 19.7701 20.8478L19.7685 20.8697L19.7627 20.8907C19.6928 21.2294 19.5555 21.5505 19.3591 21.8351C19.1627 22.1197 18.9111 22.3619 18.6194 22.5475C18.3507 22.7007 18.0507 22.7912 17.7421 22.8121C17.4335 22.8331 17.1242 22.784 16.8372 22.6686C16.0086 22.2 15.5393 21.2358 15.4425 19.8029C15.3995 19.0677 15.4383 18.33 15.5583 17.6034C15.281 17.3166 15.0211 17.0137 14.7798 16.6961C14.7824 16.7089 14.7845 16.7219 14.7858 16.7351C14.791 17.1565 14.7426 17.5768 14.642 17.9861C14.5967 18.4595 14.3741 18.8984 14.0189 19.2147L13.9976 19.2262C13.6827 19.3887 13.3393 19.1557 13.0788 18.8889C13.0725 18.9642 13.0671 19.0332 13.0634 19.0855L13.0624 19.0988L13.054 19.1467C13.0371 19.3655 12.9763 19.5786 12.8752 19.7733C12.7741 19.9681 12.6348 20.1404 12.4656 20.2801C12.1375 20.4681 11.7412 20.3855 11.2879 20.0347L11.279 20.0279L11.2709 20.0203C10.911 19.6285 10.633 19.1686 10.4534 18.6677L10.3591 18.7192C10.5536 19.2576 10.5593 19.8461 10.3754 20.3883C10.3546 20.4678 10.3366 20.5365 10.3293 20.5825L10.3269 20.5976L10.3225 20.6122C9.88063 21.9124 8.95656 22.9934 7.74095 23.6321C7.4371 23.8092 7.11857 23.9602 6.78906 24.0832C5.91197 24.4446 4.7079 24.7013 3.71565 24.0401C3.56402 24.3707 3.54349 24.7464 3.6582 25.0915C3.74174 25.4849 4.06154 26.4835 4.06154 26.4835L3.51068 26.8148C3.51603 26.5966 3.45012 26.3826 3.32294 26.2052C3.19576 26.0279 3.01424 25.8968 2.80588 25.8318C2.45671 26.0476 1.05664 26.8495 1.05664 26.8495C1.60279 28.2206 2.5158 29.4149 3.69562 30.3016C4.41281 30.6109 4.58362 30.6846 4.62442 30.7021C4.61388 30.6719 4.60829 30.6544 4.60829 30.6544L4.63733 30.7077L4.62442 30.7021C4.76413 31.1429 4.99961 31.5474 5.31399 31.8865C5.74969 32.0607 7.23019 32.8344 10.8139 32.8419C11.1831 32.5427 13.8242 30.2411 13.8242 30.2411L12.1941 27.7268L15.015 29.1062C15.015 29.1062 21.7656 24.3632 24.3281 22.0774C24.1973 21.7976 24.0511 21.5253 23.8901 21.2617L24.2232 21.0271L24.9063 21.6585C27.8828 20.3681 30.7387 18.8155 33.4402 17.0191C33.4241 16.8509 33.3881 16.6852 33.3328 16.5254L33.5843 16.3522L33.8692 16.6712L34.1033 16.4932L33.8089 16.1067L34.1154 16.0042L34.8586 16.9957C37.5196 16.2757 40.0967 15.2753 42.5466 14.0114C42.5622 13.8856 41.5875 9.35775 33.9882 9.83862Z" fill="#72BF44"/>
<path fill-rule="evenodd" clip-rule="evenodd" d="M18.0063 20.7328C18.1291 20.7493 18.2541 20.7352 18.3701 20.6917C18.4906 20.6226 18.6908 20.2609 17.9476 18.3981C17.6195 17.5725 17.1291 16.4451 16.8336 15.905C16.7393 16.2453 16.6654 16.591 16.6124 16.9401C16.442 17.8741 16.5146 18.8363 16.8234 19.7341C16.974 20.0132 17.4629 20.7081 18.0063 20.7328Z" fill="#72BF44"/>
<path fill-rule="evenodd" clip-rule="evenodd" d="M20.6013 17.7451C20.6319 17.7427 20.6639 17.7407 20.6965 17.7396C20.4714 17.1976 20.2632 16.7027 20.1384 16.4197C19.9918 16.5708 19.8904 16.76 19.8458 16.9658C19.8435 17.1691 19.9216 17.365 20.0631 17.511C20.2046 17.6569 20.3981 17.7411 20.6013 17.7451Z" fill="#72BF44"/>
<path fill-rule="evenodd" clip-rule="evenodd" d="M21.6498 15.6595C21.5547 15.6431 21.4569 15.6623 21.375 15.7133L21.6806 16.6212C21.7122 16.3485 21.7275 16.0742 21.7263 15.7998C21.715 15.751 21.6917 15.6783 21.6498 15.6595Z" fill="#72BF44"/>
<path fill-rule="evenodd" clip-rule="evenodd" d="M22.3473 18.602L22.7904 18.3565C22.5474 18.2026 22.3147 18.0331 22.0938 17.8489L22.3473 18.602Z" fill="#72BF44"/>
<path d="M26.1507 2.14999C26.32 2.05451 26.5106 2.00318 26.7049 2.00073C26.9069 1.9946 27.1062 2.04761 27.2785 2.15325C27.4493 2.25299 27.591 2.39563 27.6896 2.56705C27.7883 2.73846 27.8404 2.93267 27.8408 3.13043C27.845 3.33142 27.7914 3.52938 27.6863 3.70079C27.5863 3.87052 27.4438 4.01128 27.2728 4.1092C27.1019 4.20712 26.9083 4.25883 26.7113 4.25924C26.5102 4.2631 26.3121 4.2093 26.1405 4.10419C25.9698 4.00415 25.8284 3.86102 25.7304 3.68914C25.6324 3.51726 25.5813 3.32265 25.5822 3.12479C25.5786 2.9226 25.634 2.72375 25.7415 2.55248C25.8419 2.38608 25.9827 2.24766 26.1507 2.14999ZM26.2437 2.31231C26.1034 2.39369 25.986 2.50926 25.9024 2.64825C25.8131 2.79136 25.7671 2.95724 25.7699 3.1259C25.7689 3.29085 25.8113 3.45317 25.8929 3.5965C25.9746 3.73983 26.0926 3.85911 26.235 3.94233C26.3784 4.02957 26.5436 4.07427 26.7114 4.07125C26.8757 4.07144 27.0373 4.02857 27.1798 3.9469C27.3224 3.86522 27.4411 3.74761 27.5241 3.60577C27.6116 3.4627 27.6565 3.29763 27.6534 3.12996C27.6532 2.9651 27.6098 2.80318 27.5275 2.66032C27.4452 2.51746 27.3269 2.39866 27.1844 2.31574C27.0405 2.22763 26.8741 2.18336 26.7054 2.18836C26.5435 2.19019 26.3847 2.23282 26.2437 2.31231ZM26.5925 3.91783L25.9886 2.86354L26.3509 2.6561C26.4391 2.60017 26.5354 2.5581 26.6363 2.53135C26.7011 2.51888 26.7681 2.52804 26.8272 2.55744C26.8849 2.58441 26.933 2.62847 26.965 2.68366C26.9867 2.72082 27.0008 2.76193 27.0064 2.8046C27.0121 2.84727 27.0091 2.89064 26.9978 2.93216C26.9732 3.02402 26.9147 3.10312 26.8341 3.15352C26.8745 3.14754 26.9157 3.14908 26.9557 3.15805C27.0515 3.18791 27.1439 3.22805 27.2312 3.27779L27.4779 3.41066L27.2702 3.52961L27.0816 3.41698C26.9849 3.35045 26.877 3.30183 26.7631 3.27347C26.7076 3.26963 26.6523 3.28429 26.606 3.31516L26.506 3.37245L26.7625 3.82038L26.5925 3.91783ZM26.4227 3.22704L26.6292 3.10877C26.7035 3.07561 26.7653 3.01967 26.8058 2.94903C26.8152 2.92508 26.819 2.89926 26.8167 2.87362C26.8144 2.84797 26.8062 2.82321 26.7927 2.8013C26.7759 2.77113 26.75 2.74704 26.7187 2.73247C26.6864 2.71758 26.6503 2.71273 26.6151 2.71855C26.5509 2.73515 26.4897 2.76202 26.434 2.79814L26.2405 2.90892L26.4227 3.22704Z" fill="#ED1C24"/>
<path fill-rule="evenodd" clip-rule="evenodd" d="M26.1648 15.7099C26.1479 15.8254 26.1243 15.9399 26.0943 16.0528C26.0081 16.3567 25.8678 16.0524 25.8678 16.0524C25.8678 16.0524 25.1029 14.0356 24.992 13.822C24.694 14.0017 24.4422 14.2486 24.2566 14.543C23.614 15.5916 24.2352 17.1702 24.6477 17.5576C25.2956 18.0589 25.3967 17.2418 25.4179 17.128C25.4268 17.0007 25.4544 16.7014 25.4544 16.7014C25.4544 16.7014 25.7928 17.2078 26.0004 17.1007C26.2575 16.968 26.3858 16.0756 26.3651 15.8579C26.355 15.7597 26.176 15.6334 26.1648 15.7099ZM24.6562 14.9311C24.6562 14.9311 24.7731 15.186 24.8481 15.3467C24.994 15.6382 25.0643 15.9618 25.0522 16.2876C25.0892 16.7868 24.8296 16.4034 24.7253 16.2312C24.2409 15.3653 24.3388 15.1407 24.3618 15.0427C24.4855 14.5476 24.6562 14.9311 24.6562 14.9311Z" fill="#ED1C24"/>
<path fill-rule="evenodd" clip-rule="evenodd" d="M26.2626 12.7071L25.9228 12.1138C25.8361 12.17 25.7463 12.2215 25.6539 12.2679C25.9997 13.2568 25.5127 13.5253 25.5127 13.5253L25.6305 13.8044L25.8163 13.7069C25.8163 13.7069 26.3931 15.1804 26.4181 15.2606C26.7638 16.1026 27.2014 16.3728 27.3257 16.3422C28.1462 16.0141 27.5724 14.5995 27.4427 14.6574C27.36 14.999 27.2688 14.9041 27.2688 14.9041C27.2688 14.9041 26.6469 13.7265 26.52 13.4316C27.3639 12.6856 26.2626 12.7071 26.2626 12.7071Z" fill="#ED1C24"/>
<path fill-rule="evenodd" clip-rule="evenodd" d="M29.4244 13.5327C29.3329 12.9667 29.1236 12.4263 28.81 11.9464C28.1978 11.4461 28.0126 12.8224 28.0126 12.8224C27.9818 12.756 27.935 12.6983 27.8762 12.6546C27.2744 12.3375 27.1813 13.3599 27.1758 13.5521C27.6164 13.1842 27.6935 13.6837 27.6935 13.6837L28.2729 15.3372L28.8554 14.9695C28.621 14.438 28.4605 13.8769 28.3783 13.3019C28.4099 12.9398 28.6428 13.287 28.6678 13.3672C28.8982 14.2647 29.235 14.6418 29.3741 14.6645C30.2087 14.8562 30.0633 13.6394 29.7997 13.5278C29.6181 13.9259 29.5208 13.7927 29.4244 13.5327Z" fill="#ED1C24"/>
<path fill-rule="evenodd" clip-rule="evenodd" d="M26.1426 17.5151C26.1243 17.8205 25.1251 18.5531 24.0799 17.8729C23.6179 17.4407 23.0909 17.0837 22.5181 16.815C22.5181 16.815 23.4252 14.404 21.7016 14.5371C21.0133 14.6304 20.3766 14.9533 19.8946 15.4535C19.4127 15.9537 19.1136 16.6019 19.0459 17.2932C19.0923 17.6066 19.2124 17.9046 19.3962 18.1626C19.58 18.4206 19.8224 18.6313 20.1035 18.7775C20.2776 18.8507 20.4989 19.0596 20.876 18.5995C21.0894 18.2749 21.3128 17.913 20.5919 17.9792C20.3259 17.9684 20.0746 17.8541 19.8916 17.6606C19.7086 17.4672 19.6084 17.2099 19.6124 16.9437C19.6476 16.7617 19.7199 16.5889 19.8248 16.4361C19.9297 16.2833 20.065 16.1537 20.2222 16.0555C20.3297 16.2075 21.5826 19.2829 21.5826 19.2829L21.2873 19.6454L21.4103 19.9408L22.9651 19.06L22.7213 18.6611L22.2164 18.9409L21.0941 15.607C21.0941 15.607 21.816 15.0919 21.9567 15.7637C21.947 16.2788 21.9088 16.7929 21.8422 17.3038C21.8422 17.3038 23.7362 19.3012 25.6699 18.7315C25.9804 18.5962 27.5991 18.0446 26.8417 17.2266C26.7268 17.0946 26.3928 17.0464 26.1426 17.5151Z" fill="#ED1C24"/>
<path fill-rule="evenodd" clip-rule="evenodd" d="M32.5764 9.34745C32.2922 9.25021 32.194 9.35377 32.0662 9.63969C31.9385 9.92561 32.1242 9.96103 32.1242 9.96103C32.1815 9.99196 32.6102 10.0529 32.8341 10.1138C33.0176 10.1659 33.1759 10.283 33.2793 10.4434C33.3828 10.6037 33.4243 10.7962 33.3961 10.9849C33.1496 11.5745 32.7211 12.0699 32.1733 12.3989C32.1171 12.4354 32.0536 12.4589 31.9872 12.4679C31.9209 12.4769 31.8534 12.4712 31.7896 12.451C31.7257 12.4308 31.6672 12.3968 31.618 12.3513C31.5689 12.3059 31.5304 12.2501 31.5054 12.188C31.3136 11.6846 30.7903 10.3167 30.7 10.1429C30.402 10.3225 30.1502 10.5694 29.9646 10.8638C29.322 11.9124 29.9433 13.491 30.3557 13.8784C31.0037 14.3798 31.1047 13.5627 31.126 13.4488C31.1349 13.3215 31.1625 13.0222 31.1625 13.0222C31.237 13.1216 31.3368 13.1992 31.4515 13.247C31.5661 13.2949 31.6915 13.3112 31.8146 13.2943C31.8235 13.2924 31.8324 13.2906 31.8416 13.2883C32.3467 13.0622 32.8047 12.7418 33.1899 12.3445C33.4818 12.1086 33.6975 11.7916 33.8098 11.4335C33.9222 11.0754 33.9262 10.692 33.8213 10.3316C33.7048 10.082 33.5315 9.86298 33.3154 9.69211C33.0993 9.52124 32.8462 9.40322 32.5764 9.34745ZM30.3643 11.2519C30.3643 11.2519 30.481 11.5068 30.5561 11.6675C30.7021 11.959 30.7723 12.2826 30.7603 12.6084C30.7973 13.1076 30.5376 12.7242 30.4333 12.552C29.9489 11.6861 30.0468 11.4616 30.0699 11.3635C30.1935 10.8684 30.3643 11.2519 30.3643 11.2519Z" fill="#ED1C24"/>
<path d="M5.5563 15.3845C5.72221 15.0689 6.44973 14.4316 6.97809 14.7487C7.10965 14.8407 7.2218 14.9578 7.30812 15.0931C7.30812 15.0931 7.58761 15.5578 7.80158 14.9567C7.93271 14.4429 8.3293 13.232 6.70988 13.4683C6.06437 13.6853 5.5124 14.1164 5.14547 14.6901C5.00407 14.8972 3.44304 17.564 5.62982 18.2181C7.28619 18.7533 8.98336 18.5269 8.98979 20.224C8.91297 20.6308 8.7275 21.0092 8.45305 21.3191C8.17362 21.6554 6.49 23.0053 5.6031 23.0165C5.22125 23.034 4.84377 22.9291 4.52574 22.7171C4.2077 22.505 3.96574 22.1969 3.83516 21.8376C3.7127 21.3673 3.69175 20.8764 3.7737 20.3974C3.65724 20.3413 3.53023 20.3104 3.40101 20.3068C3.27179 20.3033 3.14327 20.327 3.02387 20.3765C2.90447 20.4261 2.79689 20.5003 2.70816 20.5943C2.61944 20.6883 2.55158 20.8 2.50902 20.9221C2.39745 21.2592 2.88327 25.4455 6.70561 23.8656C6.70561 23.8656 9.38549 22.9504 10.0988 20.5459C10.1831 20.0145 11.1298 18.1276 7.66102 17.0784C6.68621 16.8803 4.88712 16.6922 5.5563 15.3845Z" fill="#ED1C24"/>
<path d="M21.3399 11.5398C21.3091 11.7501 21.2662 11.9584 21.2115 12.1637C21.0548 12.7165 20.7995 12.1629 20.7995 12.1629C20.7995 12.1629 19.4081 8.49398 19.2061 8.10545C18.6641 8.43237 18.206 8.8815 17.8684 9.41698C16.6994 11.3245 17.8295 14.1964 18.5799 14.9012C19.7586 15.8133 19.9426 14.3268 19.9811 14.1197C19.9973 13.888 20.0476 13.3436 20.0476 13.3436C20.0476 13.3436 20.6631 14.2649 21.0407 14.07C21.5084 13.8286 21.7419 12.2051 21.7042 11.8091C21.686 11.6305 21.3603 11.4007 21.3399 11.5398ZM18.5955 10.123C18.5955 10.123 18.808 10.5868 18.9445 10.8791C19.21 11.4095 19.3377 11.9981 19.3158 12.5908C19.3832 13.499 18.9108 12.8015 18.7211 12.4882C17.8398 10.913 18.0179 10.5044 18.0598 10.3261C18.2849 9.42541 18.5955 10.123 18.5955 10.123Z" fill="#ED1C24"/>
<path d="M14.5538 16.7583C14.5356 16.5797 14.2099 16.3498 14.1895 16.489C14.1587 16.6993 14.1158 16.9075 14.0611 17.1128C13.9044 17.6657 13.6491 17.1121 13.6491 17.1121C13.6491 17.1121 12.2577 13.4432 12.0557 13.0546C11.5137 13.3816 11.0556 13.8307 10.718 14.3662C9.549 16.2737 10.6791 19.1456 11.4295 19.8504C12.6082 20.7625 12.7922 19.276 12.8307 19.0689C12.8469 18.8372 12.8971 18.2928 12.8971 18.2928C12.8971 18.2928 13.5126 19.214 13.8903 19.0192C14.358 18.7778 14.5915 17.1543 14.5538 16.7583ZM11.4451 15.0722C11.4451 15.0722 11.6576 15.536 11.7941 15.8283C12.0596 16.3587 12.1873 16.9473 12.1654 17.5401C12.2328 18.4481 11.7603 17.7507 11.5707 17.4374C10.6895 15.8622 10.8675 15.4536 10.9094 15.2753C11.1345 14.3746 11.4451 15.0722 11.4451 15.0722Z" fill="#ED1C24"/>
<path d="M15.4067 10.3855C15.4067 10.3855 12.885 11.2646 14.3969 15.6071C14.74 16.3307 15.2184 16.9821 15.8062 17.526C15.7386 17.9303 15.1355 21.4394 16.9513 22.4663C17.1923 22.6025 18.9488 22.9921 19.5379 20.8297C19.5632 20.5104 19.967 18.9607 17.3028 13.5992C16.7286 12.4949 16.0956 11.4221 15.4067 10.3855ZM18.1637 18.3119C19.2033 20.9173 18.5691 20.9913 17.9959 20.9652C17.2627 20.9318 16.7119 20.0204 16.6127 19.833C15.8257 17.9037 16.7457 15.4047 16.7457 15.4047C17.0251 15.4806 18.094 18.1364 18.1637 18.3119ZM16.218 14.0258C16.4557 14.5084 16.3679 14.6481 16.3129 14.8053C16.0165 15.4431 15.8387 15.1713 15.6528 14.9972C15.1882 14.3389 14.8427 13.6042 14.6319 12.8265C14.5986 11.7724 15.1159 12.0397 15.2376 12.2523C15.3593 12.4648 15.9802 13.5432 16.218 14.0258Z" fill="#ED1C24"/>
<path d="M25.3681 4.48155L25.0034 5.60319C25.0034 5.60319 25.2056 5.64478 25.3671 5.68863C26.5487 6.1764 25.5263 6.84589 25.2747 7.01101C23.9158 7.71587 23.2788 6.40213 23.1035 6.11437C22.2604 5.41167 22.1595 7.50316 22.1665 7.69874C21.484 6.34574 21.1317 7.08628 21.1317 7.08628L20.541 9.18715C20.6559 9.24622 20.78 9.28503 20.908 9.30189C21.255 8.07363 21.4769 9.00785 21.4769 9.00785C21.4769 9.00785 22.5995 12.5614 22.7377 12.9859C23.8426 12.4055 23.9945 11.9198 23.9945 11.9198C23.9945 11.9198 22.9706 9.20697 22.7803 8.65495C22.6434 7.9298 23.0588 7.87567 23.6585 8.10261C23.9666 8.19167 24.2908 8.20996 24.6069 8.15614C24.923 8.10231 25.2229 7.97775 25.4841 7.79177C26.0574 7.3732 26.4584 6.75989 26.6119 6.06683C26.9765 4.79835 25.3681 4.48155 25.3681 4.48155Z" fill="#ED1C24"/>
<path d="M22.3471 18.6019L22.7903 18.3564C22.6927 18.2949 22.6005 18.2326 22.5135 18.1711C22.4226 18.2131 22.3328 18.2548 22.2441 18.2961L22.3471 18.6019Z" fill="#007A48"/>
<path d="M22.9114 18.4308C22.88 18.4119 22.8489 18.393 22.8184 18.3739L22.9525 18.5933C22.9953 18.5715 23.0382 18.5498 23.0811 18.528C23.0246 18.4968 22.9681 18.4647 22.9114 18.4308Z" fill="#007A48"/>
<path d="M18.0063 20.7328C18.1291 20.7494 18.254 20.7352 18.3701 20.6917C18.4339 20.6552 18.52 20.5364 18.4766 20.1563C18.1626 20.3226 17.8811 20.4754 17.6299 20.6148C17.7443 20.6832 17.8733 20.7236 18.0063 20.7328Z" fill="#007A48"/>
<path d="M21.1415 18.8176C21.0383 18.8671 20.9369 18.9159 20.8373 18.9641C20.8051 18.9897 20.7712 19.013 20.7357 19.0338C20.6747 19.0694 20.6084 19.0949 20.5392 19.1092C20.2559 19.2476 19.9877 19.3806 19.7344 19.508C19.7724 19.7554 19.7946 20.0049 19.8007 20.255C20.2091 20.031 20.6195 19.8097 21.0318 19.5909L21.3154 19.2428C21.2605 19.108 21.202 18.965 21.1415 18.8176Z" fill="#007A48"/>
<path d="M24.4969 17.7347L24.4888 17.7271C24.3893 17.6273 24.3038 17.5146 24.2345 17.3919C24.1524 17.4284 24.071 17.4647 23.9902 17.5007C24.0631 17.5585 24.1385 17.6193 24.2178 17.6845C24.3035 17.7396 24.3943 17.7865 24.4889 17.8244L24.5671 17.786C24.5469 17.772 24.5266 17.7578 24.5056 17.7415L24.4969 17.7347Z" fill="#007A48"/>
<path d="M27.8223 16.2288C30.6262 14.9225 33.1617 13.8221 35.0009 13.0135C32.3284 14.0227 30.0003 14.9476 27.9786 15.7864C27.9609 15.9439 27.9074 16.0952 27.8223 16.2288Z" fill="#007A48"/>
<path d="M15.8953 21.6561L15.8678 21.6755C6.76895 26.9183 1.26763 32.5274 0.962688 32.8754C0.422686 33.941 1.63629 33.1986 1.63629 33.1986C1.63629 33.1986 2.45136 32.4482 3.02235 31.932C6.50168 28.9871 10.1628 26.2639 13.984 23.7787C14.7318 23.2683 15.5155 22.7639 16.3239 22.2675C16.1523 22.0854 16.008 21.8794 15.8953 21.6561Z" fill="#007A48"/>
<path d="M25.6348 17.2385L25.6289 17.269L25.6588 17.2545C25.6508 17.2493 25.6427 17.2441 25.6348 17.2385Z" fill="#007A48"/>
<path d="M26.7847 16.2869C26.7048 16.3207 26.6253 16.3544 26.5464 16.388C26.5182 16.5603 26.4732 16.7296 26.4121 16.8932C26.6596 16.7754 26.9054 16.659 27.1498 16.544C27.0113 16.4849 26.8869 16.3973 26.7847 16.2869Z" fill="#007A48"/>
</svg>
